# 3ds Max Wavefront OBJ Exporter v0.97b - (c)2007 guruware
# File Created: 22.03.2014 17:28:06

mtllib corner_obj_1.mtl

#
# object Cylinder001
#

v  0.5451 -1.0000 -0.2258
v  0.5451 -0.8305 -0.2258
v  0.5900 -0.8305 -0.0000
v  0.5900 -1.0000 -0.0000
v  0.4172 -1.0000 -0.4172
v  0.4172 -0.8305 -0.4172
v  0.2258 -1.0000 -0.5451
v  0.2258 -0.8305 -0.5451
v  -0.0000 -1.0000 -0.5900
v  -0.0000 -0.8305 -0.5900
v  -0.2258 -1.0000 -0.5451
v  -0.2258 -0.8305 -0.5451
v  -0.4172 -1.0000 -0.4172
v  -0.4172 -0.8305 -0.4172
v  -0.5451 -1.0000 -0.2258
v  -0.5451 -0.8305 -0.2258
v  -0.5900 -1.0000 -0.0000
v  -0.5900 -0.8305 -0.0000
v  -0.5451 -1.0000 0.2258
v  -0.5451 -0.8305 0.2258
v  -0.4172 -1.0000 0.4172
v  -0.4172 -0.8305 0.4172
v  -0.2258 -1.0000 0.5451
v  -0.2258 -0.8305 0.5451
v  0.0000 -1.0000 0.5900
v  0.0000 -0.8305 0.5900
v  0.2258 -1.0000 0.5451
v  0.2258 -0.8305 0.5451
v  0.4172 -1.0000 0.4172
v  0.4172 -0.8305 0.4172
v  0.5451 -1.0000 0.2258
v  0.5451 -0.8305 0.2258
v  0.5000 1.0000 -0.0000
v  0.4619 1.0000 -0.1913
v  0.0000 1.0000 -0.0000
v  0.3536 1.0000 -0.3536
v  0.1913 1.0000 -0.4619
v  -0.0000 1.0000 -0.5000
v  -0.1913 1.0000 -0.4619
v  -0.3536 1.0000 -0.3536
v  -0.4619 1.0000 -0.1913
v  -0.5000 1.0000 -0.0000
v  -0.4619 1.0000 0.1913
v  -0.3536 1.0000 0.3536
v  -0.1913 1.0000 0.4619
v  0.0000 1.0000 0.5000
v  0.1913 1.0000 0.4619
v  0.3536 1.0000 0.3536
v  0.4619 1.0000 0.1913
v  0.5000 -0.8305 -0.0000
v  0.4619 -0.8305 -0.1913
v  0.3536 -0.8305 -0.3536
v  0.1913 -0.8305 -0.4619
v  -0.0000 -0.8305 -0.5000
v  -0.1913 -0.8305 -0.4619
v  -0.3536 -0.8305 -0.3536
v  -0.4619 -0.8305 -0.1913
v  -0.5000 -0.8305 -0.0000
v  -0.4619 -0.8305 0.1913
v  -0.3536 -0.8305 0.3536
v  -0.1913 -0.8305 0.4619
v  0.0000 -0.8305 0.5000
v  0.1913 -0.8305 0.4619
v  0.3536 -0.8305 0.3536
v  0.4619 -0.8305 0.1913
v  0.5000 -1.0000 -0.0000
v  0.4619 -1.0000 -0.1913
v  0.3536 -1.0000 -0.3536
v  0.1913 -1.0000 -0.4619
v  -0.0000 -1.0000 -0.5000
v  -0.1913 -1.0000 -0.4619
v  -0.3536 -1.0000 -0.3536
v  -0.4619 -1.0000 -0.1913
v  -0.5000 -1.0000 -0.0000
v  -0.4619 -1.0000 0.1913
v  -0.3536 -1.0000 0.3536
v  -0.1913 -1.0000 0.4619
v  0.0000 -1.0000 0.5000
v  0.1913 -1.0000 0.4619
v  0.3536 -1.0000 0.3536
v  0.4619 -1.0000 0.1913
# 81 vertices

vn 0.9239 0.0000 -0.3827
vn 1.0000 0.0000 -0.0000
vn 0.7071 0.0000 -0.7071
vn 0.3827 0.0000 -0.9239
vn 0.0000 0.0000 -1.0000
vn -0.3827 0.0000 -0.9239
vn -0.7071 0.0000 -0.7071
vn -0.9239 0.0000 -0.3827
vn -1.0000 0.0000 -0.0000
vn -0.9239 0.0000 0.3827
vn -0.7071 0.0000 0.7071
vn -0.3827 0.0000 0.9239
vn 0.0000 0.0000 1.0000
vn 0.3827 0.0000 0.9239
vn 0.7071 0.0000 0.7071
vn 0.9239 0.0000 0.3827
vn 0.0000 1.0000 -0.0000
vn 0.0000 -1.0000 -0.0000
# 18 vertex normals

vt 0.8125 0.0000 1.0000
vt 0.8125 0.5000 1.0000
vt 0.7500 0.5000 1.0000
vt 0.7500 0.0000 1.0000
vt 0.8750 0.0000 1.0000
vt 0.8750 0.5000 1.0000
vt 0.9375 0.0000 1.0000
vt 0.9375 0.5000 1.0000
vt 1.0000 0.0000 1.0000
vt 1.0000 0.5000 1.0000
vt 0.0625 0.0000 1.0000
vt 0.0625 0.5000 1.0000
vt 0.0000 0.5000 1.0000
vt 0.0000 0.0000 1.0000
vt 0.1250 0.0000 1.0000
vt 0.1250 0.5000 1.0000
vt 0.1875 0.0000 1.0000
vt 0.1875 0.5000 1.0000
vt 0.2500 0.0000 1.0000
vt 0.2500 0.5000 1.0000
vt 0.3125 0.0000 1.0000
vt 0.3125 0.5000 1.0000
vt 0.3750 0.0000 1.0000
vt 0.3750 0.5000 1.0000
vt 0.4375 0.0000 1.0000
vt 0.4375 0.5000 1.0000
vt 0.5000 0.0000 1.0000
vt 0.5000 0.5000 1.0000
vt 0.5625 0.0000 1.0000
vt 0.5625 0.5000 1.0000
vt 0.6250 0.0000 1.0000
vt 0.6250 0.5000 1.0000
vt 0.6875 0.0000 1.0000
vt 0.6875 0.5000 1.0000
vt 0.7500 1.0000 1.0000
vt 0.8125 1.0000 1.0000
vt 0.5000 1.0000 1.0000
vt 0.8750 1.0000 1.0000
vt 0.9375 1.0000 1.0000
vt 1.0000 1.0000 1.0000
vt 0.0000 1.0000 1.0000
vt 0.0625 1.0000 1.0000
vt 0.1250 1.0000 1.0000
vt 0.1875 1.0000 1.0000
vt 0.2500 1.0000 1.0000
vt 0.3125 1.0000 1.0000
vt 0.3750 1.0000 1.0000
vt 0.4375 1.0000 1.0000
vt 0.5625 1.0000 1.0000
vt 0.6250 1.0000 1.0000
vt 0.6875 1.0000 1.0000
# 51 texture coords

g Cylinder001
usemtl wire_027177088
s 8
f 1/1/1 2/2/1 3/3/2 4/4/2 
f 5/5/3 6/6/3 2/2/1 1/1/1 
f 7/7/4 8/8/4 6/6/3 5/5/3 
f 9/9/5 10/10/5 8/8/4 7/7/4 
f 11/11/6 12/12/6 10/13/5 9/14/5 
f 13/15/7 14/16/7 12/12/6 11/11/6 
f 15/17/8 16/18/8 14/16/7 13/15/7 
f 17/19/9 18/20/9 16/18/8 15/17/8 
f 19/21/10 20/22/10 18/20/9 17/19/9 
f 21/23/11 22/24/11 20/22/10 19/21/10 
f 23/25/12 24/26/12 22/24/11 21/23/11 
f 25/27/13 26/28/13 24/26/12 23/25/12 
f 27/29/14 28/30/14 26/28/13 25/27/13 
f 29/31/15 30/32/15 28/30/14 27/29/14 
f 31/33/16 32/34/16 30/32/15 29/31/15 
f 4/4/2 3/3/2 32/34/16 31/33/16 
s off
f 33/35/17 34/36/17 35/37/17 
f 34/36/17 36/38/17 35/37/17 
f 36/38/17 37/39/17 35/37/17 
f 37/39/17 38/40/17 35/37/17 
f 38/41/17 39/42/17 35/37/17 
f 39/42/17 40/43/17 35/37/17 
f 40/43/17 41/44/17 35/37/17 
f 41/44/17 42/45/17 35/37/17 
f 42/45/17 43/46/17 35/37/17 
f 43/46/17 44/47/17 35/37/17 
f 44/47/17 45/48/17 35/37/17 
f 45/48/17 46/37/17 35/37/17 
f 46/37/17 47/49/17 35/37/17 
f 47/49/17 48/50/17 35/37/17 
f 48/50/17 49/51/17 35/37/17 
f 49/51/17 33/35/17 35/37/17 
s 8
f 34/36/1 33/35/2 50/3/2 51/2/1 
f 36/38/3 34/36/1 51/2/1 52/6/3 
f 37/39/4 36/38/3 52/6/3 53/8/4 
f 38/40/5 37/39/4 53/8/4 54/10/5 
f 39/42/6 38/41/5 54/13/5 55/12/6 
f 40/43/7 39/42/6 55/12/6 56/16/7 
f 41/44/8 40/43/7 56/16/7 57/18/8 
f 42/45/9 41/44/8 57/18/8 58/20/9 
f 43/46/10 42/45/9 58/20/9 59/22/10 
f 44/47/11 43/46/10 59/22/10 60/24/11 
f 45/48/12 44/47/11 60/24/11 61/26/12 
f 46/37/13 45/48/12 61/26/12 62/28/13 
f 47/49/14 46/37/13 62/28/13 63/30/14 
f 48/50/15 47/49/14 63/30/14 64/32/15 
f 49/51/16 48/50/15 64/32/15 65/34/16 
f 33/35/2 49/51/16 65/34/16 50/3/2 
s off
f 66/4/18 67/1/18 1/1/18 4/4/18 
f 67/1/18 68/5/18 5/5/18 1/1/18 
f 68/5/18 69/7/18 7/7/18 5/5/18 
f 69/7/18 70/9/18 9/9/18 7/7/18 
f 70/14/18 71/11/18 11/11/18 9/14/18 
f 71/11/18 72/15/18 13/15/18 11/11/18 
f 72/15/18 73/17/18 15/17/18 13/15/18 
f 73/17/18 74/19/18 17/19/18 15/17/18 
f 74/19/18 75/21/18 19/21/18 17/19/18 
f 75/21/18 76/23/18 21/23/18 19/21/18 
f 76/23/18 77/25/18 23/25/18 21/23/18 
f 77/25/18 78/27/18 25/27/18 23/25/18 
f 78/27/18 79/29/18 27/29/18 25/27/18 
f 79/29/18 80/31/18 29/31/18 27/29/18 
f 80/31/18 81/33/18 31/33/18 29/31/18 
f 81/33/18 66/4/18 4/4/18 31/33/18 
f 51/2/17 50/3/17 3/3/17 2/2/17 
f 50/3/17 65/34/17 32/34/17 3/3/17 
f 65/34/17 64/32/17 30/32/17 32/34/17 
f 64/32/17 63/30/17 28/30/17 30/32/17 
f 63/30/17 62/28/17 26/28/17 28/30/17 
f 62/28/17 61/26/17 24/26/17 26/28/17 
f 61/26/17 60/24/17 22/24/17 24/26/17 
f 60/24/17 59/22/17 20/22/17 22/24/17 
f 59/22/17 58/20/17 18/20/17 20/22/17 
f 58/20/17 57/18/17 16/18/17 18/20/17 
f 57/18/17 56/16/17 14/16/17 16/18/17 
f 56/16/17 55/12/17 12/12/17 14/16/17 
f 55/12/17 54/13/17 10/13/17 12/12/17 
f 54/10/17 53/8/17 8/8/17 10/10/17 
f 53/8/17 52/6/17 6/6/17 8/8/17 
f 52/6/17 51/2/17 2/2/17 6/6/17 
# 64 polygons - 16 triangles

