# 3ds Max Wavefront OBJ Exporter v0.97b - (c)2007 guruware
# File Created: 20.03.2014 20:50:08

mtllib corner_obj_1.mtl

#
# object Cylinder001
#

v  0.4045 0.0465 -0.2939
v  0.5000 0.0465 -0.0000
v  0.5000 -0.4335 -0.0000
v  0.4045 -0.4335 -0.2939
v  0.1545 0.0465 -0.4755
v  0.1545 -0.4335 -0.4755
v  -0.1545 0.0465 -0.4755
v  -0.1545 -0.4335 -0.4755
v  -0.4045 0.0465 -0.2939
v  -0.4045 -0.4335 -0.2939
v  -0.5000 0.0465 0.0000
v  -0.5000 -0.4335 0.0000
v  -0.4045 0.0465 0.2939
v  -0.4045 -0.4335 0.2939
v  -0.1545 0.0465 0.4755
v  -0.1545 -0.4335 0.4755
v  0.1545 0.0465 0.4755
v  0.1545 -0.4335 0.4755
v  0.4045 0.0465 0.2939
v  0.4045 -0.4335 0.2939
v  0.1545 -1.0000 0.4755
v  -0.1545 -1.0000 0.4755
v  -0.4045 -1.0000 0.2939
v  0.5000 -1.0000 -0.0000
v  -0.5000 -1.0000 0.0000
v  -0.4045 -1.0000 -0.2939
v  -0.1545 -1.0000 -0.4755
v  0.1545 -1.0000 -0.4755
v  0.4045 -1.0000 -0.2939
v  0.4045 -1.0000 0.2939
v  0.4045 1.0000 -0.2939
v  0.1545 1.0000 -0.4755
v  -0.1545 1.0000 -0.4755
v  0.4045 1.0000 0.2939
v  -0.4045 1.0000 -0.2939
v  -0.5000 1.0000 0.0000
v  -0.4045 1.0000 0.2939
v  -0.1545 1.0000 0.4755
v  0.1545 1.0000 0.4755
v  0.5000 1.0000 -0.0000
v  0.6500 -1.0000 -0.0000
v  0.5259 -1.0000 -0.3821
v  0.5259 -0.8200 -0.3821
v  0.6500 -0.8200 -0.0000
v  0.2009 -1.0000 -0.6182
v  0.2009 -0.8200 -0.6182
v  -0.2009 -1.0000 -0.6182
v  -0.2009 -0.8200 -0.6182
v  -0.5259 -1.0000 -0.3821
v  -0.5259 -0.8200 -0.3821
v  -0.6500 -1.0000 0.0000
v  -0.6500 -0.8200 0.0000
v  -0.5259 -1.0000 0.3821
v  -0.5259 -0.8200 0.3821
v  -0.2009 -1.0000 0.6182
v  -0.2009 -0.8200 0.6182
v  0.2009 -1.0000 0.6182
v  0.2009 -0.8200 0.6182
v  0.5259 -1.0000 0.3821
v  0.5259 -0.8200 0.3821
v  0.5000 0.5665 -0.0000
v  0.4045 0.5665 -0.2939
v  0.4045 0.5465 -0.2939
v  0.5000 0.5465 -0.0000
v  0.5000 0.0665 -0.0000
v  0.4045 0.0665 -0.2939
v  0.4045 -0.4535 -0.2939
v  0.5000 -0.4535 -0.0000
v  0.1545 0.5665 -0.4755
v  0.1545 0.5465 -0.4755
v  0.1545 0.0665 -0.4755
v  0.1545 -0.4535 -0.4755
v  -0.1545 0.5665 -0.4755
v  -0.1545 0.5465 -0.4755
v  -0.1545 0.0665 -0.4755
v  -0.1545 -0.4535 -0.4755
v  -0.4045 0.5665 -0.2939
v  -0.4045 0.5465 -0.2939
v  -0.4045 0.0665 -0.2939
v  -0.4045 -0.4535 -0.2939
v  -0.5000 0.5665 0.0000
v  -0.5000 0.5465 0.0000
v  -0.5000 0.0665 0.0000
v  -0.5000 -0.4535 0.0000
v  -0.4045 0.5665 0.2939
v  -0.4045 0.5465 0.2939
v  -0.4045 0.0665 0.2939
v  -0.4045 -0.4535 0.2939
v  -0.1545 0.5665 0.4755
v  -0.1545 0.5465 0.4755
v  -0.1545 0.0665 0.4755
v  -0.1545 -0.4535 0.4755
v  0.1545 0.5665 0.4755
v  0.1545 0.5465 0.4755
v  0.1545 0.0665 0.4755
v  0.1545 -0.4535 0.4755
v  0.4045 0.5665 0.2939
v  0.4045 0.5465 0.2939
v  0.4045 0.0665 0.2939
v  0.4045 -0.4535 0.2939
v  0.4859 0.5565 -0.0000
v  0.3931 0.5565 -0.2856
v  0.4814 0.0565 -0.0000
v  0.3894 0.0565 -0.2829
v  0.3823 -0.4435 -0.2778
v  0.4726 -0.4435 -0.0000
v  0.1502 0.5565 -0.4621
v  0.1488 0.0565 -0.4578
v  0.1460 -0.4435 -0.4494
v  -0.1502 0.5565 -0.4621
v  -0.1488 0.0565 -0.4578
v  -0.1460 -0.4435 -0.4494
v  -0.3931 0.5565 -0.2856
v  -0.3894 0.0565 -0.2829
v  -0.3823 -0.4435 -0.2778
v  -0.4859 0.5565 0.0000
v  -0.4814 0.0565 0.0000
v  -0.4726 -0.4435 0.0000
v  -0.3931 0.5565 0.2856
v  -0.3894 0.0565 0.2829
v  -0.3823 -0.4435 0.2778
v  -0.1502 0.5565 0.4621
v  -0.1488 0.0565 0.4578
v  -0.1460 -0.4435 0.4494
v  0.1502 0.5565 0.4621
v  0.1488 0.0565 0.4578
v  0.1460 -0.4435 0.4494
v  0.3931 0.5565 0.2856
v  0.3894 0.0565 0.2829
v  0.3823 -0.4435 0.2778
# 130 vertices

vn 0.8090 0.0000 -0.5878
vn 1.0000 0.0000 -0.0000
vn 0.8090 -0.0000 -0.5878
vn 0.3090 -0.0000 -0.9511
vn -0.3090 -0.0000 -0.9511
vn -0.8090 -0.0000 -0.5878
vn -1.0000 -0.0000 0.0000
vn -1.0000 0.0000 0.0000
vn -0.8090 0.0000 0.5878
vn -0.3090 0.0000 0.9511
vn 0.3090 0.0000 0.9511
vn 0.8090 0.0000 0.5878
vn 0.0000 -1.0000 -0.0000
vn 0.0000 1.0000 -0.0000
vn 0.3090 0.0000 -0.9511
vn -0.3090 0.0000 -0.9511
vn -0.8090 0.0000 -0.5878
vn 1.0000 -0.0000 -0.0000
vn -0.8090 -0.0000 0.5878
vn -0.3090 -0.0000 0.9511
vn 0.3090 -0.0000 0.9511
vn 0.8090 -0.0000 0.5878
vn 0.5784 0.8157 -0.0000
vn 0.4679 0.8157 -0.3400
vn 0.4730 0.8811 -0.0000
vn 0.3826 0.8811 -0.2780
vn 0.2771 -0.9395 -0.2013
vn 0.3425 -0.9395 -0.0000
vn 0.1787 0.8157 -0.5501
vn 0.1462 0.8811 -0.4498
vn 0.1058 -0.9395 -0.3257
vn -0.1787 0.8157 -0.5501
vn -0.1462 0.8811 -0.4498
vn -0.1058 -0.9395 -0.3257
vn -0.4679 0.8157 -0.3400
vn -0.3826 0.8811 -0.2780
vn -0.2771 -0.9395 -0.2013
vn -0.5784 0.8157 0.0000
vn -0.4730 0.8811 0.0000
vn -0.3425 -0.9395 0.0000
vn -0.4679 0.8157 0.3400
vn -0.3826 0.8811 0.2780
vn -0.2771 -0.9395 0.2013
vn -0.1787 0.8157 0.5501
vn -0.1462 0.8811 0.4498
vn -0.1058 -0.9395 0.3257
vn 0.1787 0.8157 0.5501
vn 0.1462 0.8811 0.4498
vn 0.1058 -0.9395 0.3257
vn 0.4679 0.8157 0.3400
vn 0.3826 0.8811 0.2780
vn 0.2771 -0.9395 0.2013
vn 0.5784 -0.8157 -0.0000
vn 0.4679 -0.8157 -0.3400
vn 0.4730 -0.8811 -0.0000
vn 0.3826 -0.8811 -0.2780
vn 0.2771 0.9395 -0.2013
vn 0.3425 0.9395 -0.0000
vn 0.1787 -0.8157 -0.5501
vn 0.1462 -0.8811 -0.4498
vn 0.1058 0.9395 -0.3257
vn -0.1787 -0.8157 -0.5501
vn -0.1462 -0.8811 -0.4498
vn -0.1058 0.9395 -0.3257
vn -0.4679 -0.8157 -0.3400
vn -0.3826 -0.8811 -0.2780
vn -0.2771 0.9395 -0.2013
vn -0.5784 -0.8157 0.0000
vn -0.4730 -0.8811 0.0000
vn -0.3425 0.9395 0.0000
vn -0.4679 -0.8157 0.3400
vn -0.3826 -0.8811 0.2780
vn -0.2771 0.9395 0.2013
vn -0.1787 -0.8157 0.5501
vn -0.1462 -0.8811 0.4498
vn -0.1058 0.9395 0.3257
vn 0.1787 -0.8157 0.5501
vn 0.1462 -0.8811 0.4498
vn 0.1058 0.9395 0.3257
vn 0.4679 -0.8157 0.3400
vn 0.3826 -0.8811 0.2780
vn 0.2771 0.9395 0.2013
# 82 vertex normals

vt 0.8500 0.4950 1.0000
vt 0.7500 0.4950 1.0000
vt 0.7500 0.2550 1.0000
vt 0.8500 0.2550 1.0000
vt 0.9500 0.4950 1.0000
vt 0.9500 0.2550 1.0000
vt 1.0500 0.4950 1.0000
vt 1.0500 0.2550 1.0000
vt 0.1500 0.4950 1.0000
vt 0.0500 0.4950 1.0000
vt 0.0500 0.2550 1.0000
vt 0.1500 0.2550 1.0000
vt 0.2500 0.4950 1.0000
vt 0.2500 0.2550 1.0000
vt 0.3500 0.4950 1.0000
vt 0.3500 0.2550 1.0000
vt 0.4500 0.4950 1.0000
vt 0.4500 0.2550 1.0000
vt 0.5500 0.4950 1.0000
vt 0.5500 0.2550 1.0000
vt 0.6500 0.4950 1.0000
vt 0.6500 0.2550 1.0000
vt 0.9755 0.6545 -0.2500
vt 0.9755 0.3455 -0.2500
vt 0.7939 0.0955 -0.2500
vt 0.5000 1.0000 -0.2500
vt 0.5000 0.0000 -0.2500
vt 0.2061 0.0955 -0.2500
vt 0.0245 0.3455 -0.2500
vt 0.0245 0.6545 -0.2500
vt 0.2061 0.9045 -0.2500
vt 0.7939 0.9045 -0.2500
vt 0.2061 0.9045 0.2500
vt 0.0245 0.6545 0.2500
vt 0.0245 0.3455 0.2500
vt 0.7939 0.9045 0.2500
vt 0.2061 0.0955 0.2500
vt 0.5000 0.0000 0.2500
vt 0.7939 0.0955 0.2500
vt 0.9755 0.3455 0.2500
vt 0.9755 0.6545 0.2500
vt 0.5000 1.0000 0.2500
vt 0.7500 0.0000 1.0000
vt 0.8500 0.0000 1.0000
vt 0.8500 1.0000 1.0000
vt 0.7500 1.0000 1.0000
vt 0.9500 0.0000 1.0000
vt 0.9500 1.0000 1.0000
vt 1.0500 0.0000 1.0000
vt 1.0500 1.0000 1.0000
vt 0.0500 0.0000 1.0000
vt 0.1500 0.0000 1.0000
vt 0.1500 1.0000 1.0000
vt 0.0500 1.0000 1.0000
vt 0.2500 0.0000 1.0000
vt 0.2500 1.0000 1.0000
vt 0.3500 0.0000 1.0000
vt 0.3500 1.0000 1.0000
vt 0.4500 0.0000 1.0000
vt 0.4500 1.0000 1.0000
vt 0.5500 0.0000 1.0000
vt 0.5500 1.0000 1.0000
vt 0.6500 0.0000 1.0000
vt 0.6500 1.0000 1.0000
vt 0.7500 0.7556 1.0000
vt 0.8500 0.7556 1.0000
vt 0.8500 0.7450 1.0000
vt 0.7500 0.7450 1.0000
vt 0.7500 0.5050 1.0000
vt 0.8500 0.5050 1.0000
vt 0.8500 0.2455 1.0000
vt 0.7500 0.2455 1.0000
vt 0.9500 0.7556 1.0000
vt 0.9500 0.7450 1.0000
vt 0.9500 0.5050 1.0000
vt 0.9500 0.2455 1.0000
vt 1.0500 0.7556 1.0000
vt 1.0500 0.7450 1.0000
vt 1.0500 0.5050 1.0000
vt 1.0500 0.2455 1.0000
vt 0.0500 0.7556 1.0000
vt 0.1500 0.7556 1.0000
vt 0.1500 0.7450 1.0000
vt 0.0500 0.7450 1.0000
vt 0.0500 0.5050 1.0000
vt 0.1500 0.5050 1.0000
vt 0.1500 0.2455 1.0000
vt 0.0500 0.2455 1.0000
vt 0.2500 0.7556 1.0000
vt 0.2500 0.7450 1.0000
vt 0.2500 0.5050 1.0000
vt 0.2500 0.2455 1.0000
vt 0.3500 0.7556 1.0000
vt 0.3500 0.7450 1.0000
vt 0.3500 0.5050 1.0000
vt 0.3500 0.2455 1.0000
vt 0.4500 0.7556 1.0000
vt 0.4500 0.7450 1.0000
vt 0.4500 0.5050 1.0000
vt 0.4500 0.2455 1.0000
vt 0.5500 0.7556 1.0000
vt 0.5500 0.7450 1.0000
vt 0.5500 0.5050 1.0000
vt 0.5500 0.2455 1.0000
vt 0.6500 0.7556 1.0000
vt 0.6500 0.7450 1.0000
vt 0.6500 0.5050 1.0000
vt 0.6500 0.2455 1.0000
vt 0.7500 0.7503 1.0000
vt 0.8500 0.7503 1.0000
vt 0.7500 0.5000 1.0000
vt 0.8500 0.5000 1.0000
vt 0.8500 0.2503 1.0000
vt 0.7500 0.2503 1.0000
vt 0.9500 0.7503 1.0000
vt 0.9500 0.5000 1.0000
vt 0.9500 0.2503 1.0000
vt 1.0500 0.7503 1.0000
vt 1.0500 0.5000 1.0000
vt 1.0500 0.2503 1.0000
vt 0.0500 0.7503 1.0000
vt 0.1500 0.7503 1.0000
vt 0.0500 0.5000 1.0000
vt 0.1500 0.5000 1.0000
vt 0.1500 0.2503 1.0000
vt 0.0500 0.2503 1.0000
vt 0.2500 0.7503 1.0000
vt 0.2500 0.5000 1.0000
vt 0.2500 0.2503 1.0000
vt 0.3500 0.7503 1.0000
vt 0.3500 0.5000 1.0000
vt 0.3500 0.2503 1.0000
vt 0.4500 0.7503 1.0000
vt 0.4500 0.5000 1.0000
vt 0.4500 0.2503 1.0000
vt 0.5500 0.7503 1.0000
vt 0.5500 0.5000 1.0000
vt 0.5500 0.2503 1.0000
vt 0.6500 0.7503 1.0000
vt 0.6500 0.5000 1.0000
vt 0.6500 0.2503 1.0000
# 141 texture coords

g Cylinder001
usemtl wire_225143087
s 1
f 1/1/1 2/2/2 3/3/2 4/4/3 
f 5/5/4 1/1/1 4/4/3 6/6/4 
f 7/7/5 5/5/4 6/6/4 8/8/5 
f 9/9/6 7/10/5 8/11/5 10/12/6 
f 11/13/7 9/9/6 10/12/6 12/14/8 
f 13/15/9 11/13/7 12/14/8 14/16/9 
f 15/17/10 13/15/9 14/16/9 16/18/10 
f 17/19/11 15/17/10 16/18/10 18/20/11 
f 19/21/12 17/19/11 18/20/11 20/22/12 
f 2/2/2 19/21/12 20/22/12 3/3/2 
f 21/23/13 22/24/13 23/25/13 24/26/13 
f 23/25/13 25/27/13 26/28/13 24/26/13 
f 26/28/13 27/29/13 28/30/13 24/26/13 
f 28/30/13 29/31/13 24/26/13 
f 30/32/13 21/23/13 24/26/13 
f 31/33/14 32/34/14 33/35/14 34/36/14 
f 33/35/14 35/37/14 36/38/14 34/36/14 
f 36/38/14 37/39/14 38/40/14 34/36/14 
f 38/40/14 39/41/14 34/36/14 
f 40/42/14 31/33/14 34/36/14 
f 41/43/2 42/44/1 43/45/1 44/46/2 
f 42/44/1 45/47/15 46/48/15 43/45/1 
f 45/47/15 47/49/16 48/50/16 46/48/15 
f 47/51/16 49/52/17 50/53/17 48/54/16 
f 49/52/17 51/55/8 52/56/8 50/53/17 
f 51/55/8 53/57/9 54/58/9 52/56/8 
f 53/57/9 55/59/10 56/60/10 54/58/9 
f 55/59/10 57/61/11 58/62/11 56/60/10 
f 57/61/11 59/63/12 60/64/12 58/62/11 
f 59/63/12 41/43/2 44/46/2 60/64/12 
s 2
f 57/23/13 55/24/13 53/25/13 41/26/13 
f 53/25/13 51/27/13 49/28/13 41/26/13 
f 49/28/13 47/29/13 45/30/13 41/26/13 
f 45/30/13 42/31/13 41/26/13 
f 59/32/13 57/23/13 41/26/13 
f 43/33/14 46/34/14 48/35/14 60/36/14 
f 48/35/14 50/37/14 52/38/14 60/36/14 
f 52/38/14 54/39/14 56/40/14 60/36/14 
f 56/40/14 58/41/14 60/36/14 
f 44/42/14 43/33/14 60/36/14 
f 31/45/1 40/46/2 61/65/2 62/66/3 
s 1
f 63/67/1 64/68/2 65/69/2 66/70/1 
s 2
f 24/43/2 29/44/1 67/71/1 68/72/18 
f 32/48/4 31/45/1 62/66/3 69/73/4 
s 1
f 70/74/15 63/67/1 66/70/1 71/75/15 
s 2
f 29/44/1 28/47/15 72/76/15 67/71/1 
f 33/50/16 32/48/4 69/73/4 73/77/16 
s 1
f 74/78/16 70/74/15 71/75/15 75/79/16 
s 2
f 28/47/15 27/49/16 76/80/16 72/76/15 
f 35/53/17 33/54/16 73/81/16 77/82/17 
s 1
f 78/83/17 74/84/16 75/85/16 79/86/17 
s 2
f 27/51/16 26/52/17 80/87/17 76/88/16 
f 36/56/8 35/53/17 77/82/17 81/89/8 
s 1
f 82/90/8 78/83/17 79/86/17 83/91/8 
s 2
f 26/52/17 25/55/8 84/92/8 80/87/17 
f 37/58/9 36/56/8 81/89/8 85/93/9 
s 1
f 86/94/9 82/90/8 83/91/8 87/95/9 
s 2
f 25/55/8 23/57/19 88/96/9 84/92/8 
f 38/60/10 37/58/9 85/93/9 89/97/10 
s 1
f 90/98/10 86/94/9 87/95/9 91/99/10 
s 2
f 23/57/19 22/59/20 92/100/20 88/96/9 
f 39/62/11 38/60/10 89/97/10 93/101/11 
s 1
f 94/102/11 90/98/10 91/99/10 95/103/11 
s 2
f 22/59/20 21/61/21 96/104/11 92/100/20 
f 34/64/12 39/62/11 93/101/11 97/105/12 
s 1
f 98/106/12 94/102/11 95/103/11 99/107/12 
s 2
f 21/61/21 30/63/22 100/108/22 96/104/11 
f 40/46/2 34/64/12 97/105/12 61/65/2 
s 1
f 64/68/2 98/106/12 99/107/12 65/69/2 
s 2
f 30/63/22 24/43/2 68/72/18 100/108/22 
f 101/109/23 64/68/23 63/67/24 102/110/24 
f 103/111/25 2/2/25 1/1/26 104/112/26 
f 105/113/27 4/4/27 3/3/28 106/114/28 
f 102/110/24 63/67/24 70/74/29 107/115/29 
f 104/112/26 1/1/26 5/5/30 108/116/30 
f 109/117/31 6/6/31 4/4/27 105/113/27 
f 107/115/29 70/74/29 74/78/32 110/118/32 
f 108/116/30 5/5/30 7/7/33 111/119/33 
f 112/120/34 8/8/34 6/6/31 109/117/31 
f 110/121/32 74/84/32 78/83/35 113/122/35 
f 111/123/33 7/10/33 9/9/36 114/124/36 
f 115/125/37 10/12/37 8/11/34 112/126/34 
f 113/122/35 78/83/35 82/90/38 116/127/38 
f 114/124/36 9/9/36 11/13/39 117/128/39 
f 118/129/40 12/14/40 10/12/37 115/125/37 
f 116/127/38 82/90/38 86/94/41 119/130/41 
f 117/128/39 11/13/39 13/15/42 120/131/42 
f 121/132/43 14/16/43 12/14/40 118/129/40 
f 119/130/41 86/94/41 90/98/44 122/133/44 
f 120/131/42 13/15/42 15/17/45 123/134/45 
f 124/135/46 16/18/46 14/16/43 121/132/43 
f 122/133/44 90/98/44 94/102/47 125/136/47 
f 123/134/45 15/17/45 17/19/48 126/137/48 
f 127/138/49 18/20/49 16/18/46 124/135/46 
f 125/136/47 94/102/47 98/106/50 128/139/50 
f 126/137/48 17/19/48 19/21/51 129/140/51 
f 130/141/52 20/22/52 18/20/49 127/138/49 
f 128/139/50 98/106/50 64/68/23 101/109/23 
f 129/140/51 19/21/51 2/2/25 103/111/25 
f 106/114/28 3/3/28 20/22/52 130/141/52 
s 1
f 61/65/53 101/109/53 102/110/54 62/66/54 
s 4
f 65/69/55 103/111/55 104/112/56 66/70/56 
s 1
f 67/71/57 105/113/57 106/114/58 68/72/58 
f 62/66/54 102/110/54 107/115/59 69/73/59 
s 4
f 66/70/56 104/112/56 108/116/60 71/75/60 
s 1
f 72/76/61 109/117/61 105/113/57 67/71/57 
f 69/73/59 107/115/59 110/118/62 73/77/62 
s 4
f 71/75/60 108/116/60 111/119/63 75/79/63 
s 1
f 76/80/64 112/120/64 109/117/61 72/76/61 
f 73/81/62 110/121/62 113/122/65 77/82/65 
s 4
f 75/85/63 111/123/63 114/124/66 79/86/66 
s 1
f 80/87/67 115/125/67 112/126/64 76/88/64 
f 77/82/65 113/122/65 116/127/68 81/89/68 
s 4
f 79/86/66 114/124/66 117/128/69 83/91/69 
s 1
f 84/92/70 118/129/70 115/125/67 80/87/67 
f 81/89/68 116/127/68 119/130/71 85/93/71 
s 4
f 83/91/69 117/128/69 120/131/72 87/95/72 
s 1
f 88/96/73 121/132/73 118/129/70 84/92/70 
f 85/93/71 119/130/71 122/133/74 89/97/74 
s 4
f 87/95/72 120/131/72 123/134/75 91/99/75 
s 1
f 92/100/76 124/135/76 121/132/73 88/96/73 
f 89/97/74 122/133/74 125/136/77 93/101/77 
s 4
f 91/99/75 123/134/75 126/137/78 95/103/78 
s 1
f 96/104/79 127/138/79 124/135/76 92/100/76 
f 93/101/77 125/136/77 128/139/80 97/105/80 
s 4
f 95/103/78 126/137/78 129/140/81 99/107/81 
s 1
f 100/108/82 130/141/82 127/138/79 96/104/79 
f 97/105/80 128/139/80 101/109/53 61/65/53 
s 4
f 99/107/81 129/140/81 103/111/55 65/69/55 
s 1
f 68/72/58 106/114/58 130/141/82 100/108/82 
# 122 polygons - 8 triangles

