# 3ds Max Wavefront OBJ Exporter v0.97b - (c)2007 guruware
# File Created: 22.03.2014 13:56:35

mtllib egypt_corner.mtl

#
# object Cylinder001
#

v  -0.1883 0.6125 0.0907
v  -0.2090 0.6125 -0.0000
v  -0.2409 -0.7502 -0.0000
v  -0.2170 -0.7502 0.1045
v  -0.1303 0.6125 0.1634
v  -0.1502 -0.7502 0.1883
v  -0.0465 0.6125 0.2037
v  -0.0536 -0.7502 0.2348
v  0.0465 0.6125 0.2037
v  0.0536 -0.7502 0.2348
v  0.1303 0.6125 0.1634
v  0.1502 -0.7502 0.1883
v  0.1883 0.6125 0.0907
v  0.2170 -0.7502 0.1045
v  0.2090 0.6125 -0.0000
v  0.2409 -0.7502 -0.0000
v  -0.2200 0.6348 0.1060
v  -0.2442 0.6348 -0.0000
v  -0.2000 -0.8719 -0.0000
v  -0.1802 -0.8719 0.0868
v  -0.1523 0.6348 0.1909
v  -0.1247 -0.8719 0.1564
v  -0.0543 0.6348 0.2381
v  -0.0445 -0.8719 0.1950
v  0.0543 0.6348 0.2381
v  0.0445 -0.8719 0.1950
v  0.1523 0.6348 0.1909
v  0.1247 -0.8719 0.1564
v  0.2200 0.6348 0.1060
v  0.1802 -0.8719 0.0868
v  0.2442 0.6348 -0.0000
v  0.2000 -0.8719 -0.0000
v  -0.2788 0.9661 0.1343
v  -0.3095 0.9661 -0.0000
v  -0.2438 0.9270 -0.0000
v  -0.2197 0.9270 0.1058
v  -0.1930 0.9661 0.2420
v  -0.1520 0.9270 0.1906
v  -0.0689 0.9661 0.3017
v  -0.0542 0.9270 0.2377
v  0.0689 0.9661 0.3017
v  0.0542 0.9270 0.2377
v  0.1930 0.9661 0.2420
v  0.1520 0.9270 0.1906
v  0.2788 0.9661 0.1343
v  0.2197 0.9270 0.1058
v  0.3095 0.9661 -0.0000
v  0.2438 0.9270 -0.0000
v  -0.2294 0.6874 0.1105
v  -0.2546 0.6874 -0.0000
v  -0.1587 0.6874 0.1990
v  -0.0567 0.6874 0.2482
v  0.0567 0.6874 0.2482
v  0.1587 0.6874 0.1990
v  0.2294 0.6874 0.1105
v  0.2546 0.6874 -0.0000
v  -0.2647 0.9888 0.1275
v  -0.2938 0.9888 -0.0000
v  -0.1832 0.9888 0.2297
v  -0.0654 0.9888 0.2864
v  0.0654 0.9888 0.2864
v  0.1832 0.9888 0.2297
v  0.2647 0.9888 0.1275
v  0.2938 0.9888 -0.0000
v  -0.2220 0.7597 0.1069
v  -0.2463 0.7597 -0.0000
v  -0.1536 0.7597 0.1926
v  -0.0548 0.7597 0.2402
v  0.0548 0.7597 0.2402
v  0.1536 0.7597 0.1926
v  0.2220 0.7597 0.1069
v  0.2463 0.7597 -0.0000
v  -0.1976 0.8466 0.0952
v  -0.2193 0.8466 -0.0000
v  -0.1367 0.8466 0.1715
v  -0.0488 0.8466 0.2138
v  0.0488 0.8466 0.2138
v  0.1367 0.8466 0.1715
v  0.1976 0.8466 0.0952
v  0.2193 0.8466 -0.0000
v  -0.0000 0.9897 -0.0000
v  -0.2970 -0.9897 -0.0000
v  -0.2676 -0.9897 0.1289
v  -0.2689 -0.9185 0.1295
v  -0.2985 -0.9185 -0.0000
v  -0.1852 -0.9897 0.2322
v  -0.1861 -0.9185 0.2334
v  -0.0661 -0.9897 0.2896
v  -0.0664 -0.9185 0.2910
v  0.0661 -0.9897 0.2896
v  0.0664 -0.9185 0.2910
v  0.1852 -0.9897 0.2322
v  0.1861 -0.9185 0.2334
v  0.2676 -0.9897 0.1289
v  0.2689 -0.9185 0.1295
v  0.2970 -0.9897 -0.0000
v  0.2985 -0.9185 -0.0000
v  0.2545 -0.8935 0.1225
v  0.2824 -0.8935 -0.0000
v  0.1761 -0.8935 0.2208
v  0.0628 -0.8935 0.2754
v  -0.0628 -0.8935 0.2754
v  -0.1761 -0.8935 0.2208
v  -0.2545 -0.8935 0.1225
v  -0.2824 -0.8935 -0.0000
v  -0.1883 0.6125 -0.0907
v  -0.2170 -0.7502 -0.1045
v  -0.1303 0.6125 -0.1634
v  -0.1502 -0.7502 -0.1883
v  -0.0465 0.6125 -0.2037
v  -0.0536 -0.7502 -0.2348
v  0.0465 0.6125 -0.2037
v  0.0536 -0.7502 -0.2348
v  0.1303 0.6125 -0.1634
v  0.1502 -0.7502 -0.1883
v  0.1883 0.6125 -0.0907
v  0.2170 -0.7502 -0.1045
v  -0.2200 0.6348 -0.1060
v  -0.1802 -0.8719 -0.0868
v  -0.1523 0.6348 -0.1909
v  -0.1247 -0.8719 -0.1564
v  -0.0543 0.6348 -0.2381
v  -0.0445 -0.8719 -0.1950
v  0.0543 0.6348 -0.2381
v  0.0445 -0.8719 -0.1950
v  0.1523 0.6348 -0.1909
v  0.1247 -0.8719 -0.1564
v  0.2200 0.6348 -0.1060
v  0.1802 -0.8719 -0.0868
v  -0.2788 0.9661 -0.1343
v  -0.2197 0.9270 -0.1058
v  -0.1930 0.9661 -0.2420
v  -0.1520 0.9270 -0.1906
v  -0.0689 0.9661 -0.3017
v  -0.0542 0.9270 -0.2377
v  0.0689 0.9661 -0.3017
v  0.0542 0.9270 -0.2377
v  0.1930 0.9661 -0.2420
v  0.1520 0.9270 -0.1906
v  0.2788 0.9661 -0.1343
v  0.2197 0.9270 -0.1058
v  -0.2294 0.6874 -0.1105
v  -0.1587 0.6874 -0.1990
v  -0.0567 0.6874 -0.2482
v  0.0567 0.6874 -0.2482
v  0.1587 0.6874 -0.1990
v  0.2294 0.6874 -0.1105
v  -0.2647 0.9888 -0.1275
v  -0.1832 0.9888 -0.2297
v  -0.0654 0.9888 -0.2864
v  0.0654 0.9888 -0.2864
v  0.1832 0.9888 -0.2297
v  0.2647 0.9888 -0.1275
v  -0.2220 0.7597 -0.1069
v  -0.1536 0.7597 -0.1926
v  -0.0548 0.7597 -0.2402
v  0.0548 0.7597 -0.2402
v  0.1536 0.7597 -0.1926
v  0.2220 0.7597 -0.1069
v  -0.1976 0.8466 -0.0952
v  -0.1367 0.8466 -0.1715
v  -0.0488 0.8466 -0.2138
v  0.0488 0.8466 -0.2138
v  0.1367 0.8466 -0.1715
v  0.1976 0.8466 -0.0952
v  -0.2689 -0.9185 -0.1295
v  -0.2676 -0.9897 -0.1289
v  -0.1861 -0.9185 -0.2334
v  -0.1852 -0.9897 -0.2322
v  -0.0664 -0.9185 -0.2910
v  -0.0661 -0.9897 -0.2896
v  0.0664 -0.9185 -0.2910
v  0.0661 -0.9897 -0.2896
v  0.1861 -0.9185 -0.2334
v  0.1852 -0.9897 -0.2322
v  0.2689 -0.9185 -0.1295
v  0.2676 -0.9897 -0.1289
v  0.2545 -0.8935 -0.1225
v  0.1761 -0.8935 -0.2208
v  0.0628 -0.8935 -0.2754
v  -0.0628 -0.8935 -0.2754
v  -0.1761 -0.8935 -0.2208
v  -0.2545 -0.8935 -0.1225
# 183 vertices

vn -0.9007 0.0234 0.4338
vn -0.9997 0.0234 -0.0000
vn -0.9893 -0.1461 0.0000
vn -0.8913 -0.1461 0.4292
vn -0.6233 0.0234 0.7816
vn -0.6168 -0.1461 0.7734
vn -0.2225 0.0234 0.9747
vn -0.2201 -0.1461 0.9645
vn 0.2225 0.0234 0.9747
vn 0.2201 -0.1461 0.9645
vn 0.6233 0.0234 0.7816
vn 0.6168 -0.1461 0.7734
vn 0.9007 0.0234 0.4338
vn 0.8913 -0.1461 0.4292
vn 0.9997 0.0234 -0.0000
vn 0.9893 -0.1461 0.0000
vn -0.7580 -0.5405 0.3651
vn -0.8414 -0.5405 -0.0000
vn -0.5349 -0.8449 -0.0000
vn -0.4819 -0.8449 0.2321
vn -0.9480 -0.3182 0.0000
vn -0.8541 -0.3182 0.4113
vn -0.5246 -0.5405 0.6578
vn -0.3335 -0.8449 0.4182
vn -0.5911 -0.3182 0.7412
vn -0.1872 -0.5405 0.8203
vn -0.1190 -0.8449 0.5215
vn -0.2110 -0.3182 0.9243
vn 0.1872 -0.5405 0.8203
vn 0.1190 -0.8449 0.5215
vn 0.2110 -0.3182 0.9243
vn 0.5246 -0.5405 0.6578
vn 0.3335 -0.8449 0.4182
vn 0.5911 -0.3182 0.7412
vn 0.7580 -0.5405 0.3651
vn 0.4819 -0.8449 0.2321
vn 0.8541 -0.3182 0.4113
vn 0.8414 -0.5405 -0.0000
vn 0.5349 -0.8449 -0.0000
vn 0.9480 -0.3182 -0.0000
vn -0.4604 -0.8596 0.2217
vn -0.5110 -0.8596 -0.0000
vn -0.7657 -0.6431 -0.0000
vn -0.6899 -0.6431 0.3322
vn -0.3186 -0.8596 0.3995
vn -0.4774 -0.6431 0.5987
vn -0.1137 -0.8596 0.4982
vn -0.1704 -0.6431 0.7465
vn 0.1137 -0.8596 0.4982
vn 0.1704 -0.6431 0.7465
vn 0.3186 -0.8596 0.3995
vn 0.4774 -0.6431 0.5987
vn 0.4604 -0.8596 0.2217
vn 0.6899 -0.6431 0.3322
vn 0.5110 -0.8596 -0.0000
vn 0.7657 -0.6431 -0.0000
vn -0.9003 -0.0398 0.4335
vn -0.9992 -0.0398 0.0000
vn -0.6230 -0.0398 0.7812
vn -0.2223 -0.0398 0.9742
vn 0.2223 -0.0398 0.9742
vn 0.6230 -0.0398 0.7812
vn 0.9003 -0.0398 0.4335
vn 0.9992 -0.0398 0.0000
vn -0.7413 0.5684 0.3570
vn -0.8227 0.5684 -0.0000
vn -0.8227 0.5684 0.0000
vn -0.5130 0.5684 0.6432
vn -0.1831 0.5684 0.8021
vn 0.1831 0.5684 0.8021
vn 0.5130 0.5684 0.6432
vn 0.7413 0.5684 0.3570
vn 0.8227 0.5684 0.0000
vn 0.8227 0.5684 -0.0000
vn -0.8821 0.2035 0.4248
vn -0.9791 0.2035 -0.0000
vn -0.6104 0.2035 0.7655
vn -0.2179 0.2035 0.9545
vn 0.2179 0.2035 0.9545
vn 0.6104 0.2035 0.7655
vn 0.8821 0.2035 0.4248
vn 0.9791 0.2035 -0.0000
vn -0.9010 0.0032 0.4339
vn -1.0000 0.0032 -0.0000
vn -0.6235 0.0032 0.7818
vn -0.2225 0.0032 0.9749
vn 0.2225 0.0032 0.9749
vn 0.6235 0.0032 0.7818
vn 0.9010 0.0032 0.4339
vn 1.0000 0.0032 -0.0000
vn -0.0030 1.0000 -0.0000
vn -0.0027 1.0000 0.0013
vn -0.0000 1.0000 -0.0000
vn -0.0019 1.0000 0.0024
vn -0.0007 1.0000 0.0030
vn 0.0007 1.0000 0.0030
vn 0.0019 1.0000 0.0024
vn 0.0027 1.0000 0.0013
vn 0.0030 1.0000 -0.0000
vn -0.9998 -0.0205 0.0000
vn -0.9008 -0.0205 0.4338
vn -0.8697 0.2612 0.4188
vn -0.9653 0.2612 -0.0000
vn -0.6234 -0.0205 0.7817
vn -0.6018 0.2612 0.7547
vn -0.2225 -0.0205 0.9747
vn -0.2148 0.2612 0.9411
vn 0.2225 -0.0205 0.9747
vn 0.2148 0.2612 0.9411
vn 0.6234 -0.0205 0.7817
vn 0.6018 0.2612 0.7547
vn 0.9008 -0.0205 0.4338
vn 0.8697 0.2612 0.4188
vn 0.9998 -0.0205 -0.0000
vn 0.9653 0.2612 0.0000
vn 0.2527 0.9675 0.0000
vn 0.2277 0.9675 0.1096
vn 0.5582 0.7850 0.2688
vn 0.6195 0.7850 -0.0000
vn 0.1576 0.9675 0.1976
vn 0.3863 0.7850 0.4844
vn 0.0562 0.9675 0.2464
vn 0.1379 0.7850 0.6040
vn -0.0562 0.9675 0.2464
vn -0.1379 0.7850 0.6040
vn -0.1576 0.9675 0.1976
vn -0.3863 0.7850 0.4844
vn -0.2277 0.9675 0.1096
vn -0.5582 0.7850 0.2688
vn -0.2527 0.9675 -0.0000
vn -0.6195 0.7850 -0.0000
vn -0.9007 0.0234 -0.4338
vn -0.8913 -0.1461 -0.4292
vn -0.6233 0.0234 -0.7816
vn -0.6168 -0.1461 -0.7734
vn -0.2225 0.0234 -0.9747
vn -0.2201 -0.1461 -0.9645
vn 0.2225 0.0234 -0.9747
vn 0.2201 -0.1461 -0.9645
vn 0.6233 0.0234 -0.7816
vn 0.6168 -0.1461 -0.7734
vn 0.9007 0.0234 -0.4338
vn 0.8913 -0.1461 -0.4292
vn -0.7580 -0.5405 -0.3651
vn -0.4819 -0.8449 -0.2321
vn -0.8541 -0.3182 -0.4113
vn -0.5246 -0.5405 -0.6578
vn -0.3335 -0.8449 -0.4182
vn -0.5911 -0.3182 -0.7412
vn -0.1872 -0.5405 -0.8203
vn -0.1190 -0.8449 -0.5215
vn -0.2110 -0.3182 -0.9243
vn 0.1872 -0.5405 -0.8203
vn 0.1190 -0.8449 -0.5215
vn 0.2110 -0.3182 -0.9243
vn 0.5246 -0.5405 -0.6578
vn 0.3335 -0.8449 -0.4182
vn 0.5911 -0.3182 -0.7412
vn 0.7580 -0.5405 -0.3651
vn 0.4819 -0.8449 -0.2321
vn 0.8541 -0.3182 -0.4113
vn -0.4604 -0.8596 -0.2217
vn -0.6899 -0.6431 -0.3322
vn -0.3186 -0.8596 -0.3995
vn -0.4774 -0.6431 -0.5987
vn -0.1137 -0.8596 -0.4982
vn -0.1704 -0.6431 -0.7465
vn 0.1137 -0.8596 -0.4982
vn 0.1704 -0.6431 -0.7465
vn 0.3186 -0.8596 -0.3995
vn 0.4774 -0.6431 -0.5987
vn 0.4604 -0.8596 -0.2217
vn 0.6899 -0.6431 -0.3322
vn -0.9003 -0.0398 -0.4335
vn -0.6230 -0.0398 -0.7812
vn -0.2223 -0.0398 -0.9742
vn 0.2223 -0.0398 -0.9742
vn 0.6230 -0.0398 -0.7812
vn 0.9003 -0.0398 -0.4335
vn -0.7413 0.5684 -0.3570
vn -0.5130 0.5684 -0.6432
vn -0.1831 0.5684 -0.8021
vn 0.1831 0.5684 -0.8021
vn 0.5130 0.5684 -0.6432
vn 0.7413 0.5684 -0.3570
vn -0.8821 0.2035 -0.4248
vn -0.6104 0.2035 -0.7655
vn -0.2179 0.2035 -0.9545
vn 0.2179 0.2035 -0.9545
vn 0.6104 0.2035 -0.7655
vn 0.8821 0.2035 -0.4248
vn -0.9010 0.0032 -0.4339
vn -0.6235 0.0032 -0.7818
vn -0.2225 0.0032 -0.9749
vn 0.2225 0.0032 -0.9749
vn 0.6235 0.0032 -0.7818
vn 0.9010 0.0032 -0.4339
vn -0.0027 1.0000 -0.0013
vn -0.0019 1.0000 -0.0024
vn -0.0007 1.0000 -0.0030
vn 0.0007 1.0000 -0.0030
vn 0.0019 1.0000 -0.0024
vn 0.0027 1.0000 -0.0013
vn -0.8697 0.2612 -0.4188
vn -0.9008 -0.0205 -0.4338
vn -0.6018 0.2612 -0.7547
vn -0.6234 -0.0205 -0.7817
vn -0.2148 0.2612 -0.9411
vn -0.2225 -0.0205 -0.9747
vn 0.2148 0.2612 -0.9411
vn 0.2225 -0.0205 -0.9747
vn 0.6018 0.2612 -0.7547
vn 0.6234 -0.0205 -0.7817
vn 0.8697 0.2612 -0.4188
vn 0.9008 -0.0205 -0.4338
vn 0.5582 0.7850 -0.2688
vn 0.2277 0.9675 -0.1096
vn 0.3863 0.7850 -0.4844
vn 0.1576 0.9675 -0.1976
vn 0.1379 0.7850 -0.6040
vn 0.0562 0.9675 -0.2464
vn -0.1379 0.7850 -0.6040
vn -0.0562 0.9675 -0.2464
vn -0.3863 0.7850 -0.4844
vn -0.1576 0.9675 -0.1976
vn -0.5582 0.7850 -0.2688
vn -0.2277 0.9675 -0.1096
# 227 vertex normals

vt 0.0764 0.0071 0.0000
vt 0.0131 0.0071 0.0000
vt 0.0083 0.9017 0.0000
vt 0.0764 0.9017 0.0000
vt 0.1419 0.0071 0.0000
vt 0.1422 0.9017 0.0000
vt 0.2072 0.0071 0.0000
vt 0.2074 0.9017 0.0000
vt 0.2726 0.0071 0.0000
vt 0.2725 0.9017 0.0000
vt 0.3380 0.0071 0.0000
vt 0.3377 0.9017 0.0000
vt 0.4035 0.0071 0.0000
vt 0.4035 0.9017 0.0000
vt 0.4668 0.0071 0.0000
vt 0.4716 0.9017 0.0000
vt 0.7208 0.1227 0.0000
vt 0.7213 0.0511 0.0000
vt 0.7487 0.0619 0.0000
vt 0.7482 0.1265 0.0000
vt 0.0222 0.9867 0.0000
vt 0.0818 0.9867 0.0000
vt 0.7203 0.1936 0.0000
vt 0.7477 0.1953 0.0000
vt 0.1442 0.9867 0.0000
vt 0.7197 0.2642 0.0000
vt 0.7472 0.2648 0.0000
vt 0.2079 0.9867 0.0000
vt 0.7192 0.3347 0.0000
vt 0.7467 0.3345 0.0000
vt 0.2720 0.9867 0.0000
vt 0.7186 0.4054 0.0000
vt 0.7462 0.4041 0.0000
vt 0.3357 0.9867 0.0000
vt 0.7181 0.4764 0.0000
vt 0.7457 0.4730 0.0000
vt 0.3981 0.9867 0.0000
vt 0.7176 0.5483 0.0000
vt 0.7452 0.5380 0.0000
vt 0.4578 0.9867 0.0000
vt 0.4820 0.0945 0.0000
vt 0.4825 0.0088 0.0000
vt 0.5257 0.0333 0.0000
vt 0.5252 0.1059 0.0000
vt 0.4814 0.1775 0.0000
vt 0.5247 0.1821 0.0000
vt 0.4809 0.2579 0.0000
vt 0.5241 0.2594 0.0000
vt 0.4803 0.3376 0.0000
vt 0.5236 0.3368 0.0000
vt 0.4798 0.4181 0.0000
vt 0.5231 0.4141 0.0000
vt 0.4792 0.5011 0.0000
vt 0.5226 0.4904 0.0000
vt 0.4787 0.5870 0.0000
vt 0.5221 0.5631 0.0000
vt 0.6827 0.1192 0.0000
vt 0.6832 0.0444 0.0000
vt 0.6821 0.1918 0.0000
vt 0.6816 0.2635 0.0000
vt 0.6810 0.3350 0.0000
vt 0.6805 0.4067 0.0000
vt 0.6800 0.4793 0.0000
vt 0.6794 0.5542 0.0000
vt 0.6186 0.6042 0.0000
vt 0.7021 0.5845 0.0000
vt 0.6997 0.5663 0.0000
vt 0.6105 0.5883 0.0000
vt 0.5519 0.6578 0.0000
vt 0.5379 0.6468 0.0000
vt 0.5149 0.7350 0.0000
vt 0.4975 0.7311 0.0000
vt 0.5149 0.8207 0.0000
vt 0.4975 0.8247 0.0000
vt 0.5519 0.8980 0.0000
vt 0.5379 0.9090 0.0000
vt 0.6186 0.9516 0.0000
vt 0.6105 0.9675 0.0000
vt 0.7021 0.9712 0.0000
vt 0.6997 0.9894 0.0000
vt 0.6322 0.1176 0.0000
vt 0.6327 0.0444 0.0000
vt 0.6317 0.1900 0.0000
vt 0.6312 0.2625 0.0000
vt 0.6307 0.3352 0.0000
vt 0.6302 0.4078 0.0000
vt 0.6297 0.4802 0.0000
vt 0.6292 0.5535 0.0000
vt 0.5741 0.1153 0.0000
vt 0.5746 0.0477 0.0000
vt 0.5736 0.1871 0.0000
vt 0.5732 0.2611 0.0000
vt 0.5727 0.3358 0.0000
vt 0.5722 0.4097 0.0000
vt 0.5717 0.4817 0.0000
vt 0.5712 0.5495 0.0000
vt 0.7030 0.7779 0.0000
vt 0.8757 0.0210 0.0000
vt 0.8757 0.1087 0.0000
vt 0.8358 0.1095 0.0000
vt 0.8358 0.0221 0.0000
vt 0.8757 0.1963 0.0000
vt 0.8358 0.1970 0.0000
vt 0.8757 0.2840 0.0000
vt 0.8358 0.2844 0.0000
vt 0.8757 0.3716 0.0000
vt 0.8358 0.3719 0.0000
vt 0.8757 0.4593 0.0000
vt 0.8358 0.4593 0.0000
vt 0.8757 0.5469 0.0000
vt 0.8358 0.5468 0.0000
vt 0.8757 0.6345 0.0000
vt 0.8358 0.6342 0.0000
vt 0.7628 0.6151 0.0000
vt 0.7634 0.5327 0.0000
vt 0.8162 0.5455 0.0000
vt 0.8157 0.6323 0.0000
vt 0.7640 0.4503 0.0000
vt 0.8166 0.4587 0.0000
vt 0.7646 0.3679 0.0000
vt 0.8171 0.3719 0.0000
vt 0.7652 0.2855 0.0000
vt 0.8175 0.2851 0.0000
vt 0.7658 0.2031 0.0000
vt 0.8180 0.1983 0.0000
vt 0.7664 0.1207 0.0000
vt 0.8184 0.1115 0.0000
vt 0.7670 0.0383 0.0000
vt 0.8189 0.0247 0.0000
vt 0.2727 0.0071 0.0000
vt 0.2073 0.0071 0.0000
vt 0.7208 0.4731 0.0000
vt 0.7482 0.4693 0.0000
vt 0.7487 0.5340 0.0000
vt 0.7213 0.5448 0.0000
vt 0.7203 0.4022 0.0000
vt 0.7477 0.4006 0.0000
vt 0.7197 0.3317 0.0000
vt 0.7472 0.3310 0.0000
vt 0.7192 0.2611 0.0000
vt 0.7467 0.2614 0.0000
vt 0.7186 0.1905 0.0000
vt 0.7462 0.1917 0.0000
vt 0.7181 0.1195 0.0000
vt 0.7457 0.1228 0.0000
vt 0.7176 0.0476 0.0000
vt 0.7452 0.0579 0.0000
vt 0.4820 0.5014 0.0000
vt 0.5252 0.4900 0.0000
vt 0.5257 0.5625 0.0000
vt 0.4825 0.5870 0.0000
vt 0.4814 0.4184 0.0000
vt 0.5247 0.4137 0.0000
vt 0.4809 0.3380 0.0000
vt 0.5241 0.3365 0.0000
vt 0.4803 0.2583 0.0000
vt 0.5236 0.2591 0.0000
vt 0.4798 0.1778 0.0000
vt 0.5231 0.1818 0.0000
vt 0.4792 0.0948 0.0000
vt 0.5226 0.1055 0.0000
vt 0.4787 0.0088 0.0000
vt 0.5221 0.0328 0.0000
vt 0.6827 0.4767 0.0000
vt 0.6832 0.5514 0.0000
vt 0.6821 0.4041 0.0000
vt 0.6816 0.3324 0.0000
vt 0.6810 0.2609 0.0000
vt 0.6805 0.1892 0.0000
vt 0.6800 0.1165 0.0000
vt 0.6794 0.0417 0.0000
vt 0.6322 0.4783 0.0000
vt 0.6327 0.5515 0.0000
vt 0.6317 0.4059 0.0000
vt 0.6312 0.3333 0.0000
vt 0.6307 0.2606 0.0000
vt 0.6302 0.1881 0.0000
vt 0.6297 0.1157 0.0000
vt 0.6292 0.0424 0.0000
vt 0.5741 0.4806 0.0000
vt 0.5746 0.5482 0.0000
vt 0.5736 0.4087 0.0000
vt 0.5732 0.3347 0.0000
vt 0.5727 0.2601 0.0000
vt 0.5722 0.1861 0.0000
vt 0.5717 0.1142 0.0000
vt 0.5712 0.0464 0.0000
# 187 texture coords

g Cylinder001
usemtl 24___Default
s 2
f 1/1/1 2/2/2 3/3/3 4/4/4 
f 5/5/5 1/1/1 4/4/4 6/6/6 
f 7/7/7 5/5/5 6/6/6 8/8/8 
f 9/9/9 7/7/7 8/8/8 10/10/10 
f 11/11/11 9/9/9 10/10/10 12/12/12 
f 13/13/13 11/11/11 12/12/12 14/14/14 
f 15/15/15 13/13/13 14/14/14 16/16/16 
s 1
f 17/17/17 18/18/18 2/19/19 1/20/20 
s 2
f 19/21/21 20/22/22 4/4/4 3/3/3 
s 1
f 21/23/23 17/17/17 1/20/20 5/24/24 
s 2
f 20/22/22 22/25/25 6/6/6 4/4/4 
s 1
f 23/26/26 21/23/23 5/24/24 7/27/27 
s 2
f 22/25/25 24/28/28 8/8/8 6/6/6 
s 1
f 25/29/29 23/26/26 7/27/27 9/30/30 
s 2
f 24/28/28 26/31/31 10/10/10 8/8/8 
s 1
f 27/32/32 25/29/29 9/30/30 11/33/33 
s 2
f 26/31/31 28/34/34 12/12/12 10/10/10 
s 1
f 29/35/35 27/32/32 11/33/33 13/36/36 
s 2
f 28/34/34 30/37/37 14/14/14 12/12/12 
s 1
f 31/38/38 29/35/35 13/36/36 15/39/39 
s 2
f 30/37/37 32/40/40 16/16/16 14/14/14 
s 1
f 33/41/41 34/42/42 35/43/43 36/44/44 
f 37/45/45 33/41/41 36/44/44 38/46/46 
f 39/47/47 37/45/45 38/46/46 40/48/48 
f 41/49/49 39/47/47 40/48/48 42/50/50 
f 43/51/51 41/49/49 42/50/50 44/52/52 
f 45/53/53 43/51/51 44/52/52 46/54/54 
f 47/55/55 45/53/53 46/54/54 48/56/56 
f 49/57/57 50/58/58 18/18/18 17/17/17 
f 51/59/59 49/57/57 17/17/17 21/23/23 
f 52/60/60 51/59/59 21/23/23 23/26/26 
f 53/61/61 52/60/60 23/26/26 25/29/29 
f 54/62/62 53/61/61 25/29/29 27/32/32 
f 55/63/63 54/62/62 27/32/32 29/35/35 
f 56/64/64 55/63/63 29/35/35 31/38/38 
s 2
f 57/65/65 58/66/66 34/67/67 33/68/65 
f 59/69/68 57/65/65 33/68/65 37/70/68 
f 60/71/69 59/69/68 37/70/68 39/72/69 
f 61/73/70 60/71/69 39/72/69 41/74/70 
f 62/75/71 61/73/70 41/74/70 43/76/71 
f 63/77/72 62/75/71 43/76/71 45/78/72 
f 64/79/73 63/77/72 45/78/72 47/80/74 
s 1
f 65/81/75 66/82/76 50/58/58 49/57/57 
f 67/83/77 65/81/75 49/57/57 51/59/59 
f 68/84/78 67/83/77 51/59/59 52/60/60 
f 69/85/79 68/84/78 52/60/60 53/61/61 
f 70/86/80 69/85/79 53/61/61 54/62/62 
f 71/87/81 70/86/80 54/62/62 55/63/63 
f 72/88/82 71/87/81 55/63/63 56/64/64 
f 73/89/83 74/90/84 66/82/76 65/81/75 
f 75/91/85 73/89/83 65/81/75 67/83/77 
f 76/92/86 75/91/85 67/83/77 68/84/78 
f 77/93/87 76/92/86 68/84/78 69/85/79 
f 78/94/88 77/93/87 69/85/79 70/86/80 
f 79/95/89 78/94/88 70/86/80 71/87/81 
f 80/96/90 79/95/89 71/87/81 72/88/82 
f 36/44/44 35/43/43 74/90/84 73/89/83 
f 38/46/46 36/44/44 73/89/83 75/91/85 
f 40/48/48 38/46/46 75/91/85 76/92/86 
f 42/50/50 40/48/48 76/92/86 77/93/87 
f 44/52/52 42/50/50 77/93/87 78/94/88 
f 46/54/54 44/52/52 78/94/88 79/95/89 
f 48/56/56 46/54/54 79/95/89 80/96/90 
f 58/66/91 57/65/92 81/97/93 
f 57/65/92 59/69/94 81/97/93 
f 59/69/94 60/71/95 81/97/93 
f 60/71/95 61/73/96 81/97/93 
f 61/73/96 62/75/97 81/97/93 
f 62/75/97 63/77/98 81/97/93 
f 63/77/98 64/79/99 81/97/93 
f 82/98/100 83/99/101 84/100/102 85/101/103 
f 83/99/101 86/102/104 87/103/105 84/100/102 
f 86/102/104 88/104/106 89/105/107 87/103/105 
f 88/104/106 90/106/108 91/107/109 89/105/107 
f 90/106/108 92/108/110 93/109/111 91/107/109 
f 92/108/110 94/110/112 95/111/113 93/109/111 
f 94/110/112 96/112/114 97/113/115 95/111/113 
f 32/114/116 30/115/117 98/116/118 99/117/119 
f 30/115/117 28/118/120 100/119/121 98/116/118 
f 28/118/120 26/120/122 101/121/123 100/119/121 
f 26/120/122 24/122/124 102/123/125 101/121/123 
f 24/122/124 22/124/126 103/125/127 102/123/125 
f 22/124/126 20/126/128 104/127/129 103/125/127 
f 20/126/128 19/128/130 105/129/131 104/127/129 
f 97/113/115 99/117/119 98/116/118 95/111/113 
f 95/111/113 98/116/118 100/119/121 93/109/111 
f 93/109/111 100/119/121 101/121/123 91/107/109 
f 91/107/109 101/121/123 102/123/125 89/105/107 
f 89/105/107 102/123/125 103/125/127 87/103/105 
f 87/103/105 103/125/127 104/127/129 84/100/102 
f 84/100/102 104/127/129 105/129/131 85/101/103 
s 2
f 106/13/132 107/14/133 3/16/3 2/15/2 
f 108/11/134 109/12/135 107/14/133 106/13/132 
f 110/130/136 111/10/137 109/12/135 108/11/134 
f 112/131/138 113/8/139 111/10/137 110/130/136 
f 114/5/140 115/6/141 113/8/139 112/131/138 
f 116/1/142 117/4/143 115/6/141 114/5/140 
f 15/2/15 16/3/16 117/4/143 116/1/142 
s 1
f 118/132/144 106/133/145 2/134/19 18/135/18 
s 2
f 19/40/21 3/16/3 107/14/133 119/37/146 
s 1
f 120/136/147 108/137/148 106/133/145 118/132/144 
s 2
f 119/37/146 107/14/133 109/12/135 121/34/149 
s 1
f 122/138/150 110/139/151 108/137/148 120/136/147 
s 2
f 121/34/149 109/12/135 111/10/137 123/31/152 
s 1
f 124/140/153 112/141/154 110/139/151 122/138/150 
s 2
f 123/31/152 111/10/137 113/8/139 125/28/155 
s 1
f 126/142/156 114/143/157 112/141/154 124/140/153 
s 2
f 125/28/155 113/8/139 115/6/141 127/25/158 
s 1
f 128/144/159 116/145/160 114/143/157 126/142/156 
s 2
f 127/25/158 115/6/141 117/4/143 129/22/161 
s 1
f 31/146/38 15/147/39 116/145/160 128/144/159 
s 2
f 129/22/161 117/4/143 16/3/16 32/21/40 
s 1
f 130/148/162 131/149/163 35/150/43 34/151/42 
f 132/152/164 133/153/165 131/149/163 130/148/162 
f 134/154/166 135/155/167 133/153/165 132/152/164 
f 136/156/168 137/157/169 135/155/167 134/154/166 
f 138/158/170 139/159/171 137/157/169 136/156/168 
f 140/160/172 141/161/173 139/159/171 138/158/170 
f 47/162/55 48/163/56 141/161/173 140/160/172 
f 142/164/174 118/132/144 18/135/18 50/165/58 
f 143/166/175 120/136/147 118/132/144 142/164/174 
f 144/167/176 122/138/150 120/136/147 143/166/175 
f 145/168/177 124/140/153 122/138/150 144/167/176 
f 146/169/178 126/142/156 124/140/153 145/168/177 
f 147/170/179 128/144/159 126/142/156 146/169/178 
f 56/171/64 31/146/38 128/144/159 147/170/179 
s 2
f 148/65/180 130/68/180 34/67/67 58/66/66 
f 149/69/181 132/70/181 130/68/180 148/65/180 
f 150/71/182 134/72/182 132/70/181 149/69/181 
f 151/73/183 136/74/183 134/72/182 150/71/182 
f 152/75/184 138/76/184 136/74/183 151/73/183 
f 153/77/185 140/78/185 138/76/184 152/75/184 
f 64/79/73 47/80/74 140/78/185 153/77/185 
s 1
f 154/172/186 142/164/174 50/165/58 66/173/76 
f 155/174/187 143/166/175 142/164/174 154/172/186 
f 156/175/188 144/167/176 143/166/175 155/174/187 
f 157/176/189 145/168/177 144/167/176 156/175/188 
f 158/177/190 146/169/178 145/168/177 157/176/189 
f 159/178/191 147/170/179 146/169/178 158/177/190 
f 72/179/82 56/171/64 147/170/179 159/178/191 
f 160/180/192 154/172/186 66/173/76 74/181/84 
f 161/182/193 155/174/187 154/172/186 160/180/192 
f 162/183/194 156/175/188 155/174/187 161/182/193 
f 163/184/195 157/176/189 156/175/188 162/183/194 
f 164/185/196 158/177/190 157/176/189 163/184/195 
f 165/186/197 159/178/191 158/177/190 164/185/196 
f 80/187/90 72/179/82 159/178/191 165/186/197 
f 131/149/163 160/180/192 74/181/84 35/150/43 
f 133/153/165 161/182/193 160/180/192 131/149/163 
f 135/155/167 162/183/194 161/182/193 133/153/165 
f 137/157/169 163/184/195 162/183/194 135/155/167 
f 139/159/171 164/185/196 163/184/195 137/157/169 
f 141/161/173 165/186/197 164/185/196 139/159/171 
f 48/163/56 80/187/90 165/186/197 141/161/173 
f 58/66/91 81/97/93 148/65/198 
f 148/65/198 81/97/93 149/69/199 
f 149/69/199 81/97/93 150/71/200 
f 150/71/200 81/97/93 151/73/201 
f 151/73/201 81/97/93 152/75/202 
f 152/75/202 81/97/93 153/77/203 
f 153/77/203 81/97/93 64/79/99 
f 82/98/100 85/101/103 166/100/204 167/99/205 
f 167/99/205 166/100/204 168/103/206 169/102/207 
f 169/102/207 168/103/206 170/105/208 171/104/209 
f 171/104/209 170/105/208 172/107/210 173/106/211 
f 173/106/211 172/107/210 174/109/212 175/108/213 
f 175/108/213 174/109/212 176/111/214 177/110/215 
f 177/110/215 176/111/214 97/113/115 96/112/114 
f 32/114/116 99/117/119 178/116/216 129/115/217 
f 129/115/217 178/116/216 179/119/218 127/118/219 
f 127/118/219 179/119/218 180/121/220 125/120/221 
f 125/120/221 180/121/220 181/123/222 123/122/223 
f 123/122/223 181/123/222 182/125/224 121/124/225 
f 121/124/225 182/125/224 183/127/226 119/126/227 
f 119/126/227 183/127/226 105/129/131 19/128/130 
f 97/113/115 176/111/214 178/116/216 99/117/119 
f 176/111/214 174/109/212 179/119/218 178/116/216 
f 174/109/212 172/107/210 180/121/220 179/119/218 
f 172/107/210 170/105/208 181/123/222 180/121/220 
f 170/105/208 168/103/206 182/125/224 181/123/222 
f 168/103/206 166/100/204 183/127/226 182/125/224 
f 166/100/204 85/101/103 105/129/131 183/127/226 
# 168 polygons - 14 triangles

