# 3ds Max Wavefront OBJ Exporter v0.97b - (c)2007 guruware
# File Created: 30.03.2014 20:18:48

mtllib Egypt_Monster_Door.mtl

#
# object Egypt_Monster_Door
#

v  0.5000 10.5000 -2.7177
v  -0.5000 10.5000 -2.7177
v  -0.5000 10.5000 2.7177
v  0.5000 10.5000 2.7177
v  0.5000 0.0000 4.4000
v  0.5000 2.8785 4.4000
v  -0.5000 2.8785 4.4000
v  -0.5000 0.0000 4.4000
v  0.2000 0.0000 -2.7177
v  0.2000 2.8785 -2.7177
v  0.2000 2.8785 2.7177
v  0.2000 0.0000 2.7177
v  -0.5000 0.0000 -4.4000
v  -0.5000 2.8785 -4.4000
v  0.5000 2.8785 -4.4000
v  0.5000 0.0000 -4.4000
v  0.5000 4.8726 4.4000
v  -0.5000 4.8726 4.4000
v  0.5000 8.8667 2.7177
v  0.5000 8.8667 -2.7177
v  -0.5000 4.8726 -4.4000
v  0.5000 4.8726 -4.4000
v  0.5000 10.5000 -4.4000
v  -0.5000 10.5000 -4.4000
v  -0.5000 10.5000 4.4000
v  0.5000 10.5000 4.4000
v  0.5000 2.8785 -2.7177
v  0.5000 0.0000 -2.7177
v  0.5000 0.0000 2.7177
v  0.5000 2.8785 2.7177
v  0.5000 8.8667 4.4000
v  0.5000 4.8726 -2.7177
v  -0.5000 8.8667 4.4000
v  0.2000 6.8726 2.7177
v  0.2000 6.8726 -2.7177
v  0.2000 8.8667 -2.7177
v  0.2000 8.8667 2.7177
v  0.5000 8.8667 -4.4000
v  -0.5000 8.8667 -4.4000
v  0.5000 6.8726 4.4000
v  0.5000 6.8726 2.7177
v  0.3500 2.8785 -2.7177
v  0.3500 0.0000 -2.7177
v  0.3500 4.8726 -2.7177
v  0.3500 8.8667 2.7177
v  0.3500 8.8667 -2.7177
v  0.3500 6.8726 2.7177
v  0.3500 0.0000 2.7177
v  0.3500 2.8785 2.7177
v  -0.5000 6.8726 4.4000
v  0.5000 6.8726 -4.4000
v  -0.5000 6.8726 -4.4000
v  0.5000 6.8726 -2.7177
v  0.2000 4.8726 -2.7177
v  0.2000 4.8726 2.7177
v  0.5000 4.8726 2.7177
v  0.3500 6.8726 -2.7177
v  0.3500 4.8726 2.7177
# 58 vertices

vn 0.0000 1.0000 -0.0000
vn 0.0000 0.0000 1.0000
vn 1.0000 0.0000 -0.0000
vn 0.0000 0.0000 -1.0000
vn 0.0000 -1.0000 -0.0000
# 5 vertex normals

vt 0.1979 0.7733 0.0000
vt 0.0899 0.7733 0.0000
vt 0.0899 0.1865 0.0000
vt 0.1979 0.1865 0.0000
vt 0.1927 0.0048 0.0000
vt 0.1927 0.2653 0.0000
vt 0.1022 0.2653 0.0000
vt 0.1022 0.0048 0.0000
vt 0.8455 0.0047 0.0000
vt 0.8455 0.2652 0.0000
vt 0.3537 0.2652 0.0000
vt 0.3537 0.0047 0.0000
vt 0.1927 0.4457 0.0000
vt 0.1022 0.4457 0.0000
vt 0.3537 0.9547 0.0000
vt 0.3537 0.8070 0.0000
vt 0.8455 0.8070 0.0000
vt 0.8455 0.9547 0.0000
vt 0.1979 0.9549 0.0000
vt 0.0899 0.9549 0.0000
vt 0.0899 0.0048 0.0000
vt 0.1979 0.0048 0.0000
vt 0.9977 0.0047 0.0000
vt 0.9977 0.2652 0.0000
vt 0.2015 0.2652 0.0000
vt 0.2015 0.0047 0.0000
vt 0.2015 0.9547 0.0000
vt 0.2015 0.8070 0.0000
vt 0.9977 0.4456 0.0000
vt 0.8455 0.4456 0.0000
vt 0.1927 0.9549 0.0000
vt 0.1022 0.9549 0.0000
vt 0.1022 0.8071 0.0000
vt 0.1927 0.8071 0.0000
vt 0.3537 0.6265 0.0000
vt 0.8455 0.6265 0.0000
vt 0.2015 0.6265 0.0000
vt 0.9977 0.9547 0.0000
vt 0.9977 0.8070 0.0000
vt 0.0858 0.3169 0.0000
vt 0.0555 0.3169 0.0000
vt 0.0555 0.0064 0.0000
vt 0.0858 0.0064 0.0000
vt 0.0858 0.5320 0.0000
vt 0.0555 0.5320 0.0000
vt 0.0234 0.0064 0.0000
vt 0.0537 0.0064 0.0000
vt 0.0537 0.5927 0.0000
vt 0.0234 0.5927 0.0000
vt 0.0848 0.7478 0.0000
vt 0.0545 0.7478 0.0000
vt 0.0545 0.9629 0.0000
vt 0.0848 0.9629 0.0000
vt 0.0848 0.0065 0.0000
vt 0.0545 0.0065 0.0000
vt 0.0545 0.3170 0.0000
vt 0.0848 0.3170 0.0000
vt 0.1022 0.6267 0.0000
vt 0.1927 0.6267 0.0000
vt 0.9977 0.6265 0.0000
vt 0.3537 0.4456 0.0000
vt 0.2015 0.4456 0.0000
vt 0.0858 0.9628 0.0000
vt 0.0556 0.9628 0.0000
vt 0.0556 0.7477 0.0000
vt 0.0858 0.7477 0.0000
vt 0.0545 0.5321 0.0000
vt 0.0848 0.5321 0.0000
vt 0.0253 0.3169 0.0000
vt 0.0253 0.0064 0.0000
vt 0.0253 0.5320 0.0000
vt 0.0839 0.0064 0.0000
vt 0.0839 0.5927 0.0000
vt 0.0243 0.7478 0.0000
vt 0.0243 0.9629 0.0000
vt 0.0243 0.0065 0.0000
vt 0.0243 0.3170 0.0000
vt 0.0253 0.9628 0.0000
vt 0.0253 0.7477 0.0000
vt 0.0243 0.5321 0.0000
vt 0.0553 0.0054 0.0000
vt 0.0856 0.0054 0.0000
vt 0.0856 0.5917 0.0000
vt 0.0553 0.5917 0.0000
vt 0.0233 0.0059 0.0000
vt 0.0535 0.0059 0.0000
vt 0.0535 0.5922 0.0000
vt 0.0233 0.5922 0.0000
# 88 texture coords

g Egypt_Monster_Door
usemtl 01___Default
s 4
f 1/1/1 2/2/1 3/3/1 4/4/1 
s 8
f 5/5/2 6/6/2 7/7/2 8/8/2 
s 16
f 9/9/3 10/10/3 11/11/3 12/12/3 
s 32
f 13/5/4 14/6/4 15/7/4 16/8/4 
s 8
f 17/13/2 18/14/2 7/7/2 6/6/2 
s 16
f 4/15/3 19/16/3 20/17/3 1/18/3 
s 32
f 21/13/4 22/14/4 15/7/4 14/6/4 
s 4
f 23/19/1 24/20/1 2/2/1 1/1/1 
f 25/21/1 26/22/1 4/4/1 3/3/1 
s 16
f 16/23/3 15/24/3 27/10/3 28/9/3 
f 6/25/3 5/26/3 29/12/3 30/11/3 
f 26/27/3 31/28/3 19/16/3 4/15/3 
f 15/24/3 22/29/3 32/30/3 27/10/3 
s 8
f 26/31/2 25/32/2 33/33/2 31/34/2 
s 16
f 34/35/3 35/36/3 36/17/3 37/16/3 
s 32
f 24/31/4 23/32/4 38/33/4 39/34/4 
s 16
f 40/37/3 41/35/3 19/16/3 31/28/3 
f 23/38/3 1/18/3 20/17/3 38/39/3 
s off
f 27/40/2 42/41/2 43/42/2 28/43/2 
f 32/44/2 44/45/2 42/41/2 27/40/2 
f 19/46/5 45/47/5 46/48/5 20/49/5 
f 41/50/4 47/51/4 45/52/4 19/53/4 
f 29/54/4 48/55/4 49/56/4 30/57/4 
s 8
f 31/34/2 33/33/2 50/58/2 40/59/2 
s 32
f 39/34/4 38/33/4 51/58/4 52/59/4 
s 16
f 38/39/3 20/17/3 53/36/3 51/60/3 
f 11/11/3 10/10/3 54/30/3 55/61/3 
f 6/25/3 30/11/3 56/61/3 17/62/3 
s off
f 20/63/2 46/64/2 57/65/2 53/66/2 
f 30/57/4 49/56/4 58/67/4 56/68/4 
s 8
f 17/13/2 40/59/2 50/58/2 18/14/2 
s 32
f 21/13/4 52/59/4 51/58/4 22/14/4 
s 16
f 22/29/3 51/60/3 53/36/3 32/30/3 
f 40/37/3 17/62/3 56/61/3 41/35/3 
s off
f 57/65/2 44/45/2 32/44/2 53/66/2 
f 10/69/2 9/70/2 43/42/2 42/41/2 
f 54/71/2 10/69/2 42/41/2 44/45/2 
f 37/72/5 36/73/5 46/48/5 45/47/5 
f 34/74/4 37/75/4 45/52/4 47/51/4 
f 12/76/4 11/77/4 49/56/4 48/55/4 
f 36/78/2 35/79/2 57/65/2 46/64/2 
f 11/77/4 55/80/4 58/67/4 49/56/4 
f 41/50/4 56/68/4 58/67/4 47/51/4 
s 1
f 58/81/5 55/82/5 54/83/5 44/84/5 
f 34/85/1 47/86/1 57/87/1 35/88/1 
s 2
f 47/35/3 58/61/3 44/30/3 57/36/3 
# 46 polygons

