# 3ds Max Wavefront OBJ Exporter v0.97b - (c)2007 guruware
# File Created: 23.03.2014 23:21:55

mtllib egypt_VerticalWall_1.mtl

#
# object Egypt_VerticalWall
#

v  -0.2132 0.9947 1.5513
v  0.2132 0.9947 1.5513
v  0.2132 0.9947 -1.5513
v  -0.2132 0.9947 -1.5513
v  -0.2132 -1.0000 1.5513
v  0.2132 -1.0000 1.5513
v  0.2132 -1.0000 -1.5513
v  -0.2132 -1.0000 -1.5513
# 8 vertices

vn 0.0000 1.0000 -0.0000
vn 0.0000 0.0000 1.0000
vn 1.0000 0.0000 -0.0000
vn 0.0000 0.0000 -1.0000
vn -1.0000 0.0000 -0.0000
# 5 vertex normals

vt 0.6744 0.9009 0.0000
vt 0.6744 0.9928 0.0000
vt 0.0057 0.9928 0.0000
vt 0.0057 0.9009 0.0000
vt 0.6913 0.0072 0.0000
vt 0.7832 0.0072 0.0000
vt 0.7832 0.4371 0.0000
vt 0.6913 0.4371 0.0000
vt 0.0057 0.4541 0.0000
vt 0.6744 0.4541 0.0000
vt 0.6744 0.8839 0.0000
vt 0.0057 0.8839 0.0000
vt 0.6913 0.4541 0.0000
vt 0.7832 0.4541 0.0000
vt 0.7832 0.8839 0.0000
vt 0.6913 0.8839 0.0000
vt 0.0057 0.0072 0.0000
vt 0.6744 0.0072 0.0000
vt 0.6744 0.4371 0.0000
vt 0.0057 0.4371 0.0000
# 20 texture coords

g Egypt_VerticalWall
usemtl 01___Default
s 4
f 1/1/1 2/2/1 3/3/1 4/4/1 
s 8
f 5/5/2 6/6/2 2/7/2 1/8/2 
s 17
f 6/9/3 7/10/3 3/11/3 2/12/3 
s 32
f 7/13/4 8/14/4 4/15/4 3/16/4 
s 65
f 8/17/5 5/18/5 1/19/5 4/20/5 
# 5 polygons

