# 3ds Max Wavefront OBJ Exporter v0.97b - (c)2007 guruware
# File Created: 28.03.2014 23:56:47

mtllib egypt_border_deco.mtl

#
# object Egypt_Border_deco
#

v  -1.0000 -1.0000 -0.0000
v  1.0000 -1.0000 -0.0000
v  1.0000 -1.0000 4.9810
v  -1.0000 -1.0000 4.9810
v  1.0000 1.0000 4.9810
v  1.0000 1.0000 -0.0000
v  -1.0000 1.0000 -0.0000
v  -1.0000 1.0000 4.9810
v  -1.0000 -1.0000 -4.9810
v  1.0000 -1.0000 -4.9810
v  1.0000 1.0000 -4.9810
v  -1.0000 1.0000 -4.9810
# 12 vertices

vn 0.0000 -1.0000 -0.0000
vn 0.0000 1.0000 -0.0000
vn 0.0000 0.0000 1.0000
vn 1.0000 0.0000 -0.0000
vn 0.0000 0.0000 -1.0000
# 5 vertex normals

vt 0.0082 0.9916 0.0000
vt 0.0082 0.5953 0.0000
vt 0.9951 0.5953 0.0000
vt 0.9951 0.9916 0.0000
vt 0.9952 0.9912 0.0000
vt 0.0083 0.9912 0.0000
vt 0.0083 0.5949 0.0000
vt 0.9952 0.5949 0.0000
vt 0.9926 0.1812 0.0000
vt 0.8188 0.1812 0.0000
vt 0.8188 0.0075 0.0000
vt 0.9926 0.0075 0.0000
vt 0.0091 0.5846 0.0000
vt 0.0091 0.1883 0.0000
vt 0.9960 0.1883 0.0000
vt 0.9960 0.5846 0.0000
# 16 texture coords

g Egypt_Border_deco
usemtl wire_028028177
s 2
f 1/1/1 2/2/1 3/3/1 4/4/1 
s 4
f 5/5/2 6/6/2 7/7/2 8/8/2 
s 8
f 4/9/3 3/10/3 5/11/3 8/12/3 
s 16
f 2/13/4 6/14/4 5/15/4 3/16/4 
s 2
f 1/1/1 9/4/1 10/3/1 2/2/1 
s 4
f 11/5/2 12/8/2 7/7/2 6/6/2 
s 8
f 9/9/5 12/12/5 11/11/5 10/10/5 
s 16
f 2/13/4 10/16/4 11/15/4 6/14/4 
# 8 polygons

