# 3ds Max Wavefront OBJ Exporter v0.97b - (c)2007 guruware
# File Created: 23.03.2014 18:59:09

mtllib egypt_HorisontalWall_1.mtl

#
# object Egypt_HorisontalWall
#

v  -0.2143 0.9954 1.5248
v  0.2076 0.9954 1.5248
v  0.2068 0.9954 -1.5222
v  -0.2135 0.9954 -1.5222
v  0.2117 -1.0000 1.8834
v  0.2117 0.9954 1.8834
v  -0.2117 0.9954 1.8834
v  -0.2117 -1.0000 1.8834
v  0.2069 -1.0000 1.5248
v  0.2062 -1.0000 -1.5222
v  0.2117 -1.0000 -1.8834
v  -0.2117 -1.0000 -1.8834
v  -0.2117 0.9954 -1.8834
v  0.2117 0.9954 -1.8834
v  -0.2129 -1.0000 -1.5222
v  -0.2136 -1.0000 1.5248
v  -0.2117 0.9954 -1.6725
v  0.2117 0.9954 -1.6725
v  0.2117 0.9954 1.6699
v  -0.2117 0.9954 1.6699
v  0.2117 -1.0000 -1.6725
v  0.2117 -1.0000 1.6699
v  -0.2117 -1.0000 1.6699
v  -0.2117 -1.0000 -1.6725
v  -0.2557 0.9954 -1.5652
v  0.2557 0.9954 -1.5652
v  0.2555 0.9954 1.5658
v  -0.2555 0.9954 1.5658
v  0.2557 -1.0000 -1.5652
v  0.2555 -1.0000 1.5658
v  -0.2555 -1.0000 1.5658
v  -0.2557 -1.0000 -1.5652
v  -0.2557 0.9954 -1.6295
v  0.2557 0.9954 -1.6295
v  0.2555 0.9954 1.6290
v  -0.2555 0.9954 1.6290
v  0.2557 -1.0000 -1.6295
v  0.2555 -1.0000 1.6290
v  -0.2555 -1.0000 1.6290
v  -0.2557 -1.0000 -1.6295
# 40 vertices

vn 0.0000 1.0000 -0.0000
vn 0.0000 0.0000 1.0000
vn 1.0000 -0.0003 -0.0002
vn 0.0000 0.0000 -1.0000
vn -1.0000 -0.0003 -0.0002
vn 1.0000 0.0000 -0.0000
vn -1.0000 0.0000 -0.0000
vn 0.6550 -0.0000 0.7557
vn 0.9096 0.0000 0.4155
vn 0.9110 -0.0001 0.4125
vn 0.6598 -0.0002 0.7515
vn 0.6499 -0.0000 -0.7600
vn 0.9083 0.0000 -0.4183
vn 0.9069 -0.0001 -0.4213
vn 0.6449 -0.0002 -0.7642
vn -0.6996 -0.0000 -0.7145
vn -0.9218 0.0000 -0.3876
vn -0.9233 -0.0001 -0.3841
vn -0.7051 -0.0002 -0.7091
vn -0.7131 -0.0000 0.7011
vn -0.9255 0.0000 0.3787
vn -0.9241 -0.0001 0.3822
vn -0.7078 -0.0002 0.7064
vn 0.9215 0.0000 -0.3884
vn 0.6983 0.0000 -0.7158
vn 0.9174 0.0000 0.3980
vn 0.6832 0.0000 0.7303
vn -0.9174 0.0000 0.3980
vn -0.6832 0.0000 0.7303
vn -0.9215 0.0000 -0.3884
vn -0.6983 0.0000 -0.7158
# 31 vertex normals

vt 0.7344 0.8933 0.0000
vt 0.7344 0.9834 0.0000
vt 0.0833 0.9832 0.0000
vt 0.0833 0.8934 0.0000
vt 0.9252 0.4496 0.0000
vt 0.9252 0.8759 0.0000
vt 0.8347 0.8759 0.0000
vt 0.8347 0.4496 0.0000
vt 0.0822 0.4369 0.0000
vt 0.0822 0.0059 0.0000
vt 0.7403 0.0059 0.0000
vt 0.7403 0.4369 0.0000
vt 0.8369 0.0059 0.0000
vt 0.9274 0.0059 0.0000
vt 0.9274 0.4323 0.0000
vt 0.8369 0.4323 0.0000
vt 0.0815 0.8800 0.0000
vt 0.0815 0.4496 0.0000
vt 0.7387 0.4496 0.0000
vt 0.7387 0.8800 0.0000
vt 0.0062 0.9843 0.0000
vt 0.0062 0.8938 0.0000
vt 0.0512 0.8938 0.0000
vt 0.0512 0.9843 0.0000
vt 0.8110 0.8938 0.0000
vt 0.8110 0.9843 0.0000
vt 0.7654 0.9843 0.0000
vt 0.7654 0.8938 0.0000
vt 0.7728 0.0059 0.0000
vt 0.8183 0.0059 0.0000
vt 0.8183 0.4369 0.0000
vt 0.7728 0.4369 0.0000
vt 0.0508 0.4369 0.0000
vt 0.0047 0.4369 0.0000
vt 0.0047 0.0059 0.0000
vt 0.0508 0.0059 0.0000
vt 0.7700 0.4496 0.0000
vt 0.8161 0.4496 0.0000
vt 0.8161 0.8800 0.0000
vt 0.7700 0.8800 0.0000
vt 0.0490 0.8800 0.0000
vt 0.0035 0.8800 0.0000
vt 0.0035 0.4496 0.0000
vt 0.0490 0.4496 0.0000
vt 0.0742 0.8844 0.0000
vt 0.0742 0.9937 0.0000
vt 0.7432 0.9936 0.0000
vt 0.7432 0.8845 0.0000
vt 0.7496 0.0059 0.0000
vt 0.7496 0.4369 0.0000
vt 0.0734 0.4369 0.0000
vt 0.0734 0.0059 0.0000
vt 0.7476 0.4496 0.0000
vt 0.7476 0.8800 0.0000
vt 0.0722 0.8800 0.0000
vt 0.0722 0.4496 0.0000
vt 0.0604 0.8844 0.0000
vt 0.0604 0.9937 0.0000
vt 0.7567 0.9936 0.0000
vt 0.7567 0.8845 0.0000
vt 0.7635 0.0059 0.0000
vt 0.7635 0.4369 0.0000
vt 0.0597 0.4369 0.0000
vt 0.0597 0.0059 0.0000
vt 0.7612 0.4496 0.0000
vt 0.7612 0.8800 0.0000
vt 0.0583 0.8800 0.0000
vt 0.0583 0.4496 0.0000
# 68 texture coords

g Egypt_HorisontalWall
usemtl 02___Default
s 4
f 1/1/1 2/2/1 3/3/1 4/4/1 
s 8
f 5/5/2 6/6/2 7/7/2 8/8/2 
s 16
f 2/9/3 9/10/3 10/11/3 3/12/3 
s 32
f 11/13/4 12/14/4 13/15/4 14/16/4 
s 64
f 4/17/5 15/18/5 16/19/5 1/20/5 
s 4
f 14/21/1 13/22/1 17/23/1 18/24/1 
f 7/25/1 6/26/1 19/27/1 20/28/1 
s 16
f 21/29/6 11/30/6 14/31/6 18/32/6 
f 19/33/6 6/34/6 5/35/6 22/36/6 
s 64
f 23/37/7 8/38/7 7/39/7 20/40/7 
f 17/41/7 13/42/7 12/43/7 24/44/7 
s 4
f 25/45/1 4/4/1 3/3/1 26/46/1 
f 27/47/1 2/2/1 1/1/1 28/48/1 
s 1
f 10/11/8 29/49/9 26/50/10 3/12/11 
f 2/9/12 27/51/13 30/52/14 9/10/15 
f 16/19/16 31/53/17 28/54/18 1/20/19 
f 4/17/20 25/55/21 32/56/22 15/18/23 
s 4
f 17/23/1 33/57/1 34/58/1 18/24/1 
f 19/27/1 35/59/1 36/60/1 20/28/1 
s 1
f 37/61/24 21/29/25 18/32/25 34/62/24 
f 35/63/26 19/33/27 22/36/27 38/64/26 
f 39/65/28 23/37/29 20/40/29 36/66/28 
f 33/67/30 17/41/31 24/44/31 40/68/30 
s 4
f 26/46/1 34/58/1 33/57/1 25/45/1 
f 28/48/1 36/60/1 35/59/1 27/47/1 
s 1
f 29/49/9 37/61/24 34/62/24 26/50/10 
f 27/51/13 35/63/26 38/64/26 30/52/14 
f 31/53/17 39/65/28 36/66/28 28/54/18 
f 25/55/21 33/67/30 40/68/30 32/56/22 
# 29 polygons

