# 3ds Max Wavefront OBJ Exporter v0.97b - (c)2007 guruware
# File Created: 04.04.2014 18:09:59

mtllib Egypt_VerticalWall_3Side.mtl

#
# object Egypt_VerticalWall_3Side
#

v  -0.2132 0.9947 1.5513
v  0.2132 0.9947 1.5513
v  0.2132 0.9947 -1.5513
v  -0.2132 0.9947 -1.5513
v  0.2132 -1.0000 1.5513
v  0.2132 -1.0000 -1.5513
v  -0.2132 -1.0000 -1.5513
v  -0.2132 -1.0000 1.5513
# 8 vertices

vn 0.0000 1.0000 -0.0000
vn 1.0000 0.0000 -0.0000
vn -1.0000 0.0000 -0.0000
# 3 vertex normals

vt 0.6744 0.9009 0.0000
vt 0.6744 0.9928 0.0000
vt 0.0057 0.9928 0.0000
vt 0.0057 0.9009 0.0000
vt 0.0057 0.4541 0.0000
vt 0.6744 0.4541 0.0000
vt 0.6744 0.8839 0.0000
vt 0.0057 0.8839 0.0000
vt 0.0057 0.0072 0.0000
vt 0.6744 0.0072 0.0000
vt 0.6744 0.4371 0.0000
vt 0.0057 0.4371 0.0000
# 12 texture coords

g Egypt_VerticalWall_3Side
usemtl 07___Default
s 4
f 1/1/1 2/2/1 3/3/1 4/4/1 
s 17
f 5/5/2 6/6/2 3/7/2 2/8/2 
s 65
f 7/9/3 8/10/3 1/11/3 4/12/3 
# 3 polygons

