# 3ds Max Wavefront OBJ Exporter v0.97b - (c)2007 guruware
# File Created: 30.03.2014 16:41:37

mtllib Egypt_Torch.mtl

#
# object Egypt_Torch
#

v  0.0317 -0.0148 -0.0606
v  0.5955 1.1648 -0.0823
v  0.6386 1.1447 0.0000
v  0.0634 -0.0296 -0.0000
v  -0.0317 0.0148 -0.0606
v  0.5094 1.2049 -0.0823
v  -0.0634 0.0296 0.0000
v  0.4664 1.2250 0.0000
v  -0.0317 0.0148 0.0606
v  0.5094 1.2049 0.0823
v  0.0317 -0.0148 0.0606
v  0.5955 1.1648 0.0823
v  1.3520 2.6944 -0.1474
v  1.4292 2.6584 0.0000
v  1.3709 2.4295 0.0000
v  1.2738 2.4747 -0.1854
v  1.1978 2.7663 -0.1474
v  1.0798 2.5652 -0.1854
v  1.1207 2.8023 0.0000
v  0.9828 2.6105 0.0000
v  1.1978 2.7663 0.1474
v  1.0798 2.5652 0.1854
v  1.3520 2.6944 0.1474
v  1.2738 2.4747 0.1854
v  1.3075 2.8003 0.0000
v  1.2138 2.3190 0.0000
v  1.1594 2.3443 -0.1039
v  1.0506 2.3950 -0.1039
v  0.9962 2.4204 0.0000
v  1.0506 2.3950 0.1039
v  1.1594 2.3443 0.1039
v  0.2640 0.5003 -0.1940
v  0.2828 0.6074 -0.1940
v  0.4485 0.5782 -0.0968
v  0.4297 0.4711 -0.0968
v  0.2828 0.6074 -0.1109
v  0.3776 0.5907 -0.0553
v  0.2640 0.5003 -0.1109
v  0.3588 0.4836 -0.0553
v  0.4485 0.5782 0.0974
v  0.4297 0.4711 0.0974
v  0.3776 0.5907 0.0559
v  0.3588 0.4836 0.0559
v  0.2828 0.6074 0.1946
v  0.2640 0.5003 0.1946
v  0.2828 0.6074 0.1114
v  0.2640 0.5003 0.1114
v  0.0922 0.6366 0.0436
v  0.0733 0.5295 0.0436
v  0.1881 0.6241 0.0559
v  0.1692 0.5170 0.0559
v  -0.4865 0.6530 0.0222
v  -0.4865 0.7038 0.0222
v  -0.4865 0.7038 -0.0216
v  -0.4865 0.6530 -0.0216
v  0.1881 0.6241 -0.0553
v  0.0922 0.6366 -0.0430
v  0.1692 0.5170 -0.0553
v  0.0733 0.5295 -0.0430
v  0.6432 1.3086 -0.1940
v  0.6621 1.4157 -0.1940
v  0.8278 1.3864 -0.0968
v  0.8089 1.2793 -0.0968
v  0.6621 1.4157 -0.1209
v  0.7654 1.3974 -0.0603
v  0.6432 1.3086 -0.1209
v  0.7465 1.2903 -0.0603
v  0.8278 1.3864 0.0974
v  0.8089 1.2793 0.0974
v  0.7654 1.3974 0.0609
v  0.7465 1.2903 0.0609
v  0.6621 1.4157 0.1946
v  0.6432 1.3086 0.1946
v  0.6621 1.4157 0.1214
v  0.6432 1.3086 0.1214
v  0.4561 1.4449 0.0413
v  0.4372 1.3378 0.0413
v  0.5588 1.4339 0.0609
v  0.5399 1.3268 0.0609
v  -0.5605 1.5465 0.0222
v  -0.5605 1.5940 0.0222
v  -0.5605 1.5940 -0.0216
v  -0.5605 1.5465 -0.0216
v  0.5588 1.4339 -0.0603
v  0.4561 1.4449 -0.0408
v  0.5399 1.3268 -0.0603
v  0.4372 1.3378 -0.0408
# 87 vertices

vn 0.4450 -0.2286 -0.8659
vn 0.8981 -0.4399 0.0000
vn -0.4612 0.1939 -0.8659
vn -0.9142 0.4052 -0.0000
vn -0.9142 0.4052 0.0000
vn -0.4612 0.1939 0.8659
vn 0.4450 -0.2286 0.8659
vn 0.6115 0.3268 -0.7206
vn 0.9885 0.1510 0.0000
vn 0.8323 -0.5544 -0.0000
vn 0.3857 -0.3444 -0.8559
vn -0.1427 0.6785 -0.7206
vn -0.5094 0.0763 -0.8571
vn -0.5197 0.8543 -0.0000
vn -0.9579 0.2872 0.0000
vn -0.1427 0.6785 0.7206
vn -0.5094 0.0763 0.8571
vn 0.6115 0.3268 0.7206
vn 0.3857 -0.3444 0.8559
vn 0.4226 0.9063 0.0000
vn 0.5755 -0.8178 -0.0000
vn 0.1827 -0.6311 -0.7539
vn -0.6039 -0.2575 -0.7543
vn -0.9975 -0.0705 0.0000
vn -0.6039 -0.2575 0.7543
vn 0.1826 -0.6311 0.7539
vn -0.0728 0.0128 -0.9973
vn -0.0654 0.0115 -0.9978
vn 0.8529 -0.1504 -0.5000
vn 0.1634 0.9866 0.0000
vn 0.1610 0.9869 -0.0044
vn 0.1736 0.9848 0.0000
vn -0.0000 -0.0000 1.0000
vn -0.0000 0.0000 1.0000
vn -0.8529 0.1504 0.5000
vn -0.1736 -0.9848 -0.0000
vn -0.1662 -0.9861 0.0052
vn 0.8529 -0.1504 0.5000
vn 0.1736 0.9848 -0.0000
vn -0.8529 0.1504 -0.5000
vn -0.1736 -0.9848 0.0000
vn -0.0654 0.0115 0.9978
vn -0.0728 0.0128 0.9973
vn 0.1662 0.9861 0.0052
vn -0.0000 -0.0000 -1.0000
vn -0.0000 0.0000 -1.0000
vn -0.1634 -0.9866 0.0000
vn -0.1610 -0.9869 -0.0044
vn -0.6070 0.1070 0.7875
vn 0.1316 0.9911 0.0188
vn 0.1283 0.9917 0.0082
vn -0.1313 -0.9913 -0.0094
vn -0.1209 -0.9905 -0.0649
vn -1.0000 0.0000 -0.0000
vn 0.1209 0.9905 -0.0649
vn 0.1313 0.9913 -0.0094
vn -0.1283 -0.9917 0.0082
vn -0.1316 -0.9911 0.0188
vn -0.6070 0.1070 -0.7875
vn -0.0603 0.0106 -0.9981
vn -0.0492 0.0087 -0.9988
vn 0.1580 0.9874 0.0000
vn 0.1546 0.9880 -0.0065
vn 0.0000 0.0000 1.0000
vn -0.1629 -0.9866 0.0085
vn -0.0492 0.0087 0.9988
vn -0.0603 0.0106 0.9981
vn 0.1629 0.9866 0.0085
vn 0.0000 -0.0000 -1.0000
vn -0.1580 -0.9874 -0.0000
vn -0.1546 -0.9880 -0.0065
vn -0.5841 0.1030 0.8051
vn 0.1058 0.9937 0.0361
vn 0.1041 0.9945 0.0127
vn -0.1079 -0.9941 -0.0143
vn -0.0840 -0.9898 -0.1153
vn 0.0840 0.9898 -0.1153
vn 0.1079 0.9941 -0.0143
vn -0.1041 -0.9945 0.0127
vn -0.1058 -0.9937 0.0361
vn -0.5841 0.1030 -0.8051
vn -0.0369 0.0044 0.9993
vn 0.1154 0.9933 -0.0000
vn -0.0369 0.0044 -0.9993
vn -0.2154 -0.9765 -0.0000
vn -0.0186 0.0023 0.9998
vn 0.1451 0.9894 -0.0000
vn -0.0186 0.0023 -0.9998
vn -0.2048 -0.9788 -0.0000
# 89 vertex normals

vt 0.6065 0.0121 0.0000
vt 0.6158 0.9750 0.0000
vt 0.6508 0.9735 0.0000
vt 0.6323 0.0110 0.0000
vt 0.5550 0.0121 0.0000
vt 0.5459 0.9750 0.0000
vt 0.5292 0.0110 0.0000
vt 0.5109 0.9735 0.0000
vt 0.5527 0.0208 0.0000
vt 0.5436 0.9837 0.0000
vt 0.5087 0.9822 0.0000
vt 0.5270 0.0197 0.0000
vt 0.6043 0.0208 0.0000
vt 0.6136 0.9837 0.0000
vt 0.6300 0.0197 0.0000
vt 0.6486 0.9821 0.0000
vt 0.7765 0.2451 0.0000
vt 0.7019 0.2854 0.0000
vt 0.6492 0.1391 0.0000
vt 0.7593 0.1276 0.0000
vt 0.8579 0.2417 0.0000
vt 0.8653 0.1230 0.0000
vt 0.9356 0.2758 0.0000
vt 0.9760 0.1258 0.0000
vt 0.7750 0.2438 0.0000
vt 0.6998 0.2830 0.0000
vt 0.6493 0.1359 0.0000
vt 0.7596 0.1259 0.0000
vt 0.8565 0.2417 0.0000
vt 0.8657 0.1233 0.0000
vt 0.9338 0.2768 0.0000
vt 0.9763 0.1272 0.0000
vt 0.8210 0.3342 0.0000
vt 0.8182 0.3336 0.0000
vt 0.6867 0.0262 0.0000
vt 0.7643 0.0294 0.0000
vt 0.8539 0.0257 0.0000
vt 0.9312 0.0168 0.0000
vt 0.6871 0.0241 0.0000
vt 0.7647 0.0281 0.0000
vt 0.8540 0.0256 0.0000
vt 0.9312 0.0172 0.0000
vt 0.0939 0.8102 0.0000
vt 0.0255 0.8126 0.0000
vt 0.0291 0.9148 0.0000
vt 0.0975 0.9124 0.0000
vt 0.3127 0.1305 0.0000
vt 0.2627 0.1305 0.0000
vt 0.2293 0.0726 0.0000
vt 0.2543 0.0293 0.0000
vt 0.7753 0.4832 0.0000
vt 0.7753 0.4362 0.0000
vt 0.8683 0.4362 0.0000
vt 0.8683 0.4832 0.0000
vt 0.2704 0.1410 0.0000
vt 0.3204 0.1398 0.0000
vt 0.2595 0.0401 0.0000
vt 0.2356 0.0840 0.0000
vt 0.7908 0.3469 0.0000
vt 0.7908 0.4123 0.0000
vt 0.6740 0.4123 0.0000
vt 0.6740 0.3469 0.0000
vt 0.1624 0.0726 0.0000
vt 0.1375 0.0293 0.0000
vt 0.8572 0.4808 0.0000
vt 0.8572 0.4482 0.0000
vt 0.7235 0.4482 0.0000
vt 0.7235 0.4808 0.0000
vt 0.1427 0.0429 0.0000
vt 0.1687 0.0856 0.0000
vt 0.0941 0.9163 0.0000
vt 0.0257 0.9188 0.0000
vt 0.0221 0.8166 0.0000
vt 0.0905 0.8142 0.0000
vt 0.1290 0.1305 0.0000
vt 0.0790 0.1305 0.0000
vt 0.8594 0.4815 0.0000
vt 0.8594 0.4345 0.0000
vt 0.7665 0.4345 0.0000
vt 0.7665 0.4815 0.0000
vt 0.0867 0.1455 0.0000
vt 0.1367 0.1443 0.0000
vt 0.0203 0.6899 0.0000
vt 0.0887 0.6875 0.0000
vt 0.1624 0.1884 0.0000
vt 0.1697 0.2465 0.0000
vt 0.6735 0.4345 0.0000
vt 0.6735 0.4815 0.0000
vt 0.1803 0.2593 0.0000
vt 0.1715 0.2013 0.0000
vt 0.7473 0.3653 0.0000
vt 0.7473 0.3959 0.0000
vt 0.7210 0.3959 0.0000
vt 0.7210 0.3653 0.0000
vt 0.2292 0.1884 0.0000
vt 0.2219 0.2465 0.0000
vt 0.7188 0.4711 0.0000
vt 0.7188 0.4384 0.0000
vt 0.8526 0.4384 0.0000
vt 0.8526 0.4711 0.0000
vt 0.2324 0.2580 0.0000
vt 0.2383 0.1997 0.0000
vt 0.0922 0.6835 0.0000
vt 0.0237 0.6859 0.0000
vt 0.6823 0.4832 0.0000
vt 0.6823 0.4362 0.0000
vt 0.0927 0.8187 0.0000
vt 0.0251 0.8206 0.0000
vt 0.0280 0.9225 0.0000
vt 0.0956 0.9205 0.0000
vt 0.3253 0.1389 0.0000
vt 0.2813 0.1382 0.0000
vt 0.2458 0.0746 0.0000
vt 0.2684 0.0369 0.0000
vt 0.7675 0.4831 0.0000
vt 0.7675 0.4361 0.0000
vt 0.8689 0.4361 0.0000
vt 0.8689 0.4831 0.0000
vt 0.1350 0.1374 0.0000
vt 0.0911 0.1385 0.0000
vt 0.1470 0.0359 0.0000
vt 0.1699 0.0735 0.0000
vt 0.7932 0.3510 0.0000
vt 0.7932 0.4164 0.0000
vt 0.6764 0.4164 0.0000
vt 0.6764 0.3510 0.0000
vt 0.1730 0.0735 0.0000
vt 0.1516 0.0351 0.0000
vt 0.8612 0.4769 0.0000
vt 0.8612 0.4442 0.0000
vt 0.7154 0.4442 0.0000
vt 0.7154 0.4769 0.0000
vt 0.2639 0.0331 0.0000
vt 0.2428 0.0717 0.0000
vt 0.0922 0.9128 0.0000
vt 0.0247 0.9147 0.0000
vt 0.0218 0.8128 0.0000
vt 0.0893 0.8109 0.0000
vt 0.1356 0.1361 0.0000
vt 0.0916 0.1355 0.0000
vt 0.8691 0.4822 0.0000
vt 0.8691 0.4352 0.0000
vt 0.7678 0.4352 0.0000
vt 0.7678 0.4822 0.0000
vt 0.3248 0.1329 0.0000
vt 0.2808 0.1339 0.0000
vt 0.0224 0.6797 0.0000
vt 0.0899 0.6778 0.0000
vt 0.1710 0.1997 0.0000
vt 0.1819 0.2620 0.0000
vt 0.6664 0.4352 0.0000
vt 0.6664 0.4822 0.0000
vt 0.2356 0.2603 0.0000
vt 0.2459 0.1979 0.0000
vt 0.7396 0.3694 0.0000
vt 0.7396 0.3980 0.0000
vt 0.7133 0.3980 0.0000
vt 0.7133 0.3694 0.0000
vt 0.2439 0.2008 0.0000
vt 0.2313 0.2627 0.0000
vt 0.7088 0.4823 0.0000
vt 0.7088 0.4496 0.0000
vt 0.8546 0.4496 0.0000
vt 0.8546 0.4823 0.0000
vt 0.1862 0.2615 0.0000
vt 0.1730 0.1997 0.0000
vt 0.0932 0.6855 0.0000
vt 0.0257 0.6875 0.0000
vt 0.6662 0.4831 0.0000
vt 0.6662 0.4361 0.0000
vt 0.0289 0.3230 0.0000
vt 0.0606 0.3274 0.0000
vt 0.2091 0.5967 0.0000
vt 0.1827 0.5967 0.0000
vt 0.0640 0.3234 0.0000
vt 0.0323 0.3190 0.0000
vt 0.2013 0.6033 0.0000
vt 0.2277 0.6026 0.0000
vt 0.0226 0.0415 0.0000
vt 0.0518 0.0458 0.0000
vt 0.2107 0.8806 0.0000
vt 0.1844 0.8802 0.0000
vt 0.0551 0.0536 0.0000
vt 0.0259 0.0493 0.0000
vt 0.2392 0.8728 0.0000
vt 0.2129 0.8735 0.0000
vt 0.4542 0.9779 0.0000
vt 0.4984 0.9760 0.0000
vt 0.4799 0.0135 0.0000
vt 0.4449 0.0150 0.0000
vt 0.3658 0.9779 0.0000
vt 0.3749 0.0151 0.0000
vt 0.3216 0.9760 0.0000
vt 0.3399 0.0136 0.0000
vt 0.3636 0.9866 0.0000
vt 0.3194 0.9847 0.0000
vt 0.3377 0.0222 0.0000
vt 0.3727 0.0237 0.0000
vt 0.4520 0.9866 0.0000
vt 0.4426 0.0237 0.0000
vt 0.4962 0.9846 0.0000
vt 0.4776 0.0222 0.0000
# 202 texture coords

g Egypt_Torch
usemtl wire_135110008
s 2
f 1/1/1 2/2/1 3/3/2 4/4/2 
f 5/5/3 6/6/3 2/2/1 1/1/1 
f 7/7/4 8/8/5 6/6/3 5/5/3 
f 9/9/6 10/10/6 8/11/5 7/12/4 
f 11/13/7 12/14/7 10/10/6 9/9/6 
f 4/15/2 3/16/2 12/14/7 11/13/7 
s 1
f 13/17/8 14/18/9 15/19/10 16/20/11 
f 17/21/12 13/17/8 16/20/11 18/22/13 
f 19/23/14 17/21/12 18/22/13 20/24/15 
f 21/25/16 19/26/14 20/27/15 22/28/17 
f 23/29/18 21/25/16 22/28/17 24/30/19 
f 14/31/9 23/29/18 24/30/19 15/32/10 
f 14/18/9 13/17/8 25/33/20 
f 13/17/8 17/21/12 25/33/20 
f 17/21/12 19/23/14 25/33/20 
f 19/26/14 21/25/16 25/34/20 
f 21/25/16 23/29/18 25/34/20 
f 23/29/18 14/31/9 25/34/20 
f 26/35/21 27/36/22 16/20/11 15/19/10 
f 27/36/22 28/37/23 18/22/13 16/20/11 
f 28/37/23 29/38/24 20/24/15 18/22/13 
f 29/39/24 30/40/25 22/28/17 20/27/15 
f 30/40/25 31/41/26 24/30/19 22/28/17 
f 31/41/26 26/42/21 15/32/10 24/30/19 
s 2
f 32/43/27 33/44/28 34/45/29 35/46/29 
s 4
f 33/47/30 36/48/31 37/49/32 34/50/32 
s 2
f 36/51/33 38/52/34 39/53/35 37/54/35 
s 4
f 38/55/36 32/56/37 35/57/36 39/58/36 
s 2
f 35/59/29 34/60/29 40/61/38 41/62/38 
s 4
f 34/50/32 37/49/32 42/63/39 40/64/39 
s 2
f 37/65/35 39/66/35 43/67/40 42/68/40 
s 4
f 39/58/36 35/57/36 41/69/36 43/70/41 
s 2
f 41/71/38 40/72/38 44/73/42 45/74/43 
s 4
f 40/64/39 42/63/39 46/75/39 44/76/44 
s 2
f 42/77/40 43/78/40 47/79/45 46/80/46 
s 4
f 43/70/41 41/69/36 45/81/47 47/82/48 
s 2
f 45/74/43 44/73/42 48/83/49 49/84/49 
s 4
f 44/76/44 46/75/39 50/85/50 48/86/51 
s 2
f 46/80/46 47/79/45 51/87/29 50/88/29 
s 4
f 47/82/48 45/81/47 49/89/52 51/90/53 
s 2
f 52/91/54 53/92/54 54/93/54 55/94/54 
s 4
f 48/86/51 50/85/50 56/95/55 57/96/56 
s 2
f 50/97/29 51/98/29 58/99/38 56/100/38 
s 4
f 51/90/53 49/89/52 59/101/57 58/102/58 
s 2
f 59/103/59 57/104/59 33/44/28 32/43/27 
s 4
f 57/96/56 56/95/55 36/48/31 33/47/30 
s 2
f 56/105/38 58/106/38 38/52/34 36/51/33 
s 4
f 58/102/58 59/101/57 32/56/37 38/55/36 
s 2
f 60/107/60 61/108/61 62/109/29 63/110/29 
s 4
f 61/111/62 64/112/63 65/113/32 62/114/32 
s 2
f 64/115/33 66/116/64 67/117/35 65/118/35 
s 4
f 66/119/41 60/120/65 63/121/41 67/122/41 
s 2
f 63/123/29 62/124/29 68/125/38 69/126/38 
s 4
f 62/114/32 65/113/32 70/127/39 68/128/39 
s 2
f 65/129/35 67/130/35 71/131/40 70/132/40 
s 4
f 67/122/41 63/121/41 69/133/36 71/134/36 
s 2
f 69/135/38 68/136/38 72/137/66 73/138/67 
s 4
f 68/128/39 70/127/39 74/139/39 72/140/68 
s 2
f 70/141/40 71/142/40 75/143/69 74/144/46 
s 4
f 71/134/36 69/133/36 73/145/70 75/146/71 
s 2
f 73/138/67 72/137/66 76/147/72 77/148/72 
s 4
f 72/140/68 74/139/39 78/149/73 76/150/74 
s 2
f 74/144/46 75/143/69 79/151/29 78/152/29 
s 4
f 75/146/71 73/145/70 77/153/75 79/154/76 
s 2
f 80/155/54 81/156/54 82/157/54 83/158/54 
s 4
f 76/150/74 78/149/73 84/159/77 85/160/78 
s 2
f 78/161/29 79/162/29 86/163/38 84/164/38 
s 4
f 79/154/76 77/153/75 87/165/79 86/166/80 
s 2
f 87/167/81 85/168/81 61/108/61 60/107/60 
s 4
f 85/160/78 84/159/77 64/112/63 61/111/62 
s 2
f 84/169/38 86/170/38 66/116/64 64/115/33 
s 4
f 86/166/80 87/165/79 60/120/65 66/119/41 
s off
f 49/84/82 48/83/82 53/171/82 52/172/82 
f 48/86/83 57/96/83 54/173/83 53/174/83 
f 57/104/84 59/103/84 55/175/84 54/176/84 
f 59/101/85 49/89/85 52/177/85 55/178/85 
f 77/148/86 76/147/86 81/179/86 80/180/86 
f 76/150/87 85/160/87 82/181/87 81/182/87 
f 85/168/88 87/167/88 83/183/88 82/184/88 
f 87/165/89 77/153/89 80/185/89 83/186/89 
s 2
f 27/187/1 26/188/2 3/189/2 2/190/1 
f 28/191/3 27/187/1 2/190/1 6/192/3 
f 29/193/5 28/191/3 6/192/3 8/194/5 
f 30/195/6 29/196/5 8/197/5 10/198/6 
f 31/199/7 30/195/6 10/198/6 12/200/7 
f 26/201/2 31/199/7 12/200/7 3/202/2 
# 80 polygons - 6 triangles

