# 3ds Max Wavefront OBJ Exporter v0.97b - (c)2007 guruware
# File Created: 30.03.2014 17:45:56

mtllib Egypt_Monster_Door.mtl

#
# object Egypt_Monster_Door
#

v  0.5000 10.5000 -2.7177
v  -0.5000 10.5000 -2.7177
v  -0.5000 10.5000 2.7177
v  0.5000 10.5000 2.7177
v  0.5000 0.0000 4.4000
v  0.5000 2.8785 4.4000
v  -0.5000 2.8785 4.4000
v  -0.5000 0.0000 4.4000
v  0.2000 0.0000 -2.7177
v  0.2000 2.8785 -2.7177
v  0.2000 2.8785 2.7177
v  0.2000 0.0000 2.7177
v  -0.5000 0.0000 -4.4000
v  -0.5000 2.8785 -4.4000
v  0.5000 2.8785 -4.4000
v  0.5000 0.0000 -4.4000
v  0.5000 4.8726 4.4000
v  -0.5000 4.8726 4.4000
v  0.5000 8.8667 2.7177
v  0.5000 8.8667 -2.7177
v  -0.5000 4.8726 -4.4000
v  0.5000 4.8726 -4.4000
v  0.5000 10.5000 -4.4000
v  -0.5000 10.5000 -4.4000
v  -0.5000 10.5000 4.4000
v  0.5000 10.5000 4.4000
v  0.5000 2.8785 -2.7177
v  0.5000 0.0000 -2.7177
v  0.5000 0.0000 2.7177
v  0.5000 2.8785 2.7177
v  0.5000 8.8667 4.4000
v  0.5000 4.8726 -2.7177
v  -0.5000 8.8667 4.4000
v  0.2000 6.8726 2.7177
v  0.2000 6.8726 -2.7177
v  0.2000 8.8667 -2.7177
v  0.2000 8.8667 2.7177
v  0.5000 8.8667 -4.4000
v  -0.5000 8.8667 -4.4000
v  0.5000 6.8726 4.4000
v  0.5000 6.8726 2.7177
v  0.3500 2.8785 -2.7177
v  0.3500 0.0000 -2.7177
v  0.3500 4.8726 -2.7177
v  0.3500 8.8667 2.7177
v  0.3500 8.8667 -2.7177
v  0.3500 6.8726 2.7177
v  0.3500 0.0000 2.7177
v  0.3500 2.8785 2.7177
v  -0.5000 6.8726 4.4000
v  0.5000 6.8726 -4.4000
v  -0.5000 6.8726 -4.4000
v  0.5000 6.8726 -2.7177
v  0.2000 4.8726 -2.7177
v  0.2000 4.8726 2.7177
v  0.5000 4.8726 2.7177
v  0.3500 6.8726 -2.7177
v  0.3500 4.8726 2.7177
# 58 vertices

vn 0.0000 1.0000 -0.0000
vn 0.0000 0.0000 1.0000
vn 1.0000 0.0000 -0.0000
vn 0.0000 0.0000 -1.0000
vn 0.0000 -1.0000 -0.0000
# 5 vertex normals

vt 0.9995 0.8085 0.9995
vt 0.0005 0.8085 0.9995
vt 0.0005 0.1915 0.9995
vt 0.9995 0.1915 0.9995
vt 0.9995 0.0005 0.0005
vt 0.9995 0.2744 0.0005
vt 0.0005 0.2744 0.0005
vt 0.0005 0.0005 0.0005
vt 0.8085 0.0005 0.6998
vt 0.8085 0.2744 0.6998
vt 0.1915 0.2744 0.6998
vt 0.1915 0.0005 0.6998
vt 0.9995 0.0005 0.9995
vt 0.9995 0.2744 0.9995
vt 0.0005 0.2744 0.9995
vt 0.0005 0.0005 0.9995
vt 0.9995 0.4641 0.0005
vt 0.0005 0.4641 0.0005
vt 0.1915 0.9995 0.9995
vt 0.1915 0.8441 0.9995
vt 0.8085 0.8441 0.9995
vt 0.8085 0.9995 0.9995
vt 0.9995 0.4641 0.9995
vt 0.0005 0.4641 0.9995
vt 0.9995 0.9995 0.9995
vt 0.0005 0.9995 0.9995
vt 0.8085 0.2744 0.9995
vt 0.8085 0.0005 0.9995
vt 0.1915 0.0005 0.9995
vt 0.1915 0.2744 0.9995
vt 0.0005 0.8441 0.9995
vt 0.8085 0.4641 0.9995
vt 0.9995 0.9995 0.0005
vt 0.0005 0.9995 0.0005
vt 0.0005 0.8441 0.0005
vt 0.9995 0.8441 0.0005
vt 0.1915 0.6544 0.6998
vt 0.8085 0.6544 0.6998
vt 0.8085 0.8441 0.6998
vt 0.1915 0.8441 0.6998
vt 0.9995 0.8441 0.9995
vt 0.0005 0.6544 0.9995
vt 0.1915 0.6544 0.9995
vt 0.9995 0.2744 0.8085
vt 0.8497 0.2744 0.8085
vt 0.8497 0.0005 0.8085
vt 0.9995 0.0005 0.8085
vt 0.9995 0.4641 0.8085
vt 0.8497 0.4641 0.8085
vt 0.0005 0.1915 0.8441
vt 0.1504 0.1915 0.8441
vt 0.1503 0.8085 0.8441
vt 0.0005 0.8085 0.8441
vt 0.0005 0.6544 0.1915
vt 0.1504 0.6544 0.1915
vt 0.1504 0.8441 0.1915
vt 0.0005 0.8441 0.1915
vt 0.0005 0.0005 0.1915
vt 0.1504 0.0005 0.1915
vt 0.1504 0.2744 0.1915
vt 0.0005 0.2744 0.1915
vt 0.0005 0.6544 0.0005
vt 0.9995 0.6544 0.0005
vt 0.9995 0.6544 0.9995
vt 0.8085 0.6544 0.9995
vt 0.8085 0.4641 0.6998
vt 0.1915 0.4641 0.6998
vt 0.1915 0.4641 0.9995
vt 0.9995 0.8441 0.8085
vt 0.8497 0.8441 0.8085
vt 0.8497 0.6544 0.8085
vt 0.9995 0.6544 0.8085
vt 0.1504 0.4641 0.1915
vt 0.0005 0.4641 0.1915
vt 0.6998 0.2744 0.8085
vt 0.6998 0.0005 0.8085
vt 0.6998 0.4641 0.8085
vt 0.3002 0.1915 0.8441
vt 0.3002 0.8085 0.8441
vt 0.3002 0.6544 0.1915
vt 0.3002 0.8441 0.1915
vt 0.3002 0.0005 0.1915
vt 0.3002 0.2744 0.1915
vt 0.6998 0.8441 0.8085
vt 0.6998 0.6544 0.8085
vt 0.3002 0.4641 0.1915
vt 0.1504 0.1915 0.4641
vt 0.3002 0.1915 0.4641
vt 0.3002 0.8085 0.4641
vt 0.1503 0.8085 0.4641
vt 0.6998 0.1915 0.6544
vt 0.8496 0.1915 0.6544
vt 0.8497 0.8085 0.6544
vt 0.6998 0.8085 0.6544
vt 0.1915 0.6544 0.8496
vt 0.1915 0.4641 0.8496
vt 0.8085 0.4641 0.8497
vt 0.8085 0.6544 0.8497
# 98 texture coords

g Egypt_Monster_Door
usemtl 01___Default
s 4
f 1/1/1 2/2/1 3/3/1 4/4/1 
s 8
f 5/5/2 6/6/2 7/7/2 8/8/2 
s 16
f 9/9/3 10/10/3 11/11/3 12/12/3 
s 32
f 13/13/4 14/14/4 15/15/4 16/16/4 
s 8
f 17/17/2 18/18/2 7/7/2 6/6/2 
s 16
f 4/19/3 19/20/3 20/21/3 1/22/3 
s 32
f 21/23/4 22/24/4 15/15/4 14/14/4 
s 4
f 23/25/1 24/26/1 2/2/1 1/1/1 
f 25/16/1 26/13/1 4/4/1 3/3/1 
s 16
f 16/13/3 15/14/3 27/27/3 28/28/3 
f 6/15/3 5/16/3 29/29/3 30/30/3 
f 26/26/3 31/31/3 19/20/3 4/19/3 
f 15/14/3 22/23/3 32/32/3 27/27/3 
s 8
f 26/33/2 25/34/2 33/35/2 31/36/2 
s 16
f 34/37/3 35/38/3 36/39/3 37/40/3 
s 32
f 24/25/4 23/26/4 38/31/4 39/41/4 
s 16
f 40/42/3 41/43/3 19/20/3 31/31/3 
f 23/25/3 1/22/3 20/21/3 38/41/3 
s off
f 27/44/2 42/45/2 43/46/2 28/47/2 
f 32/48/2 44/49/2 42/45/2 27/44/2 
f 19/50/5 45/51/5 46/52/5 20/53/5 
f 41/54/4 47/55/4 45/56/4 19/57/4 
f 29/58/4 48/59/4 49/60/4 30/61/4 
s 8
f 31/36/2 33/35/2 50/62/2 40/63/2 
s 32
f 39/41/4 38/31/4 51/42/4 52/64/4 
s 16
f 38/41/3 20/21/3 53/65/3 51/64/3 
f 11/11/3 10/10/3 54/66/3 55/67/3 
f 6/15/3 30/30/3 56/68/3 17/24/3 
s off
f 20/69/2 46/70/2 57/71/2 53/72/2 
f 30/61/4 49/60/4 58/73/4 56/74/4 
s 8
f 17/17/2 40/63/2 50/62/2 18/18/2 
s 32
f 21/23/4 52/64/4 51/42/4 22/24/4 
s 16
f 22/23/3 51/64/3 53/65/3 32/32/3 
f 40/42/3 17/24/3 56/68/3 41/43/3 
s off
f 57/71/2 44/49/2 32/48/2 53/72/2 
f 10/75/2 9/76/2 43/46/2 42/45/2 
f 54/77/2 10/75/2 42/45/2 44/49/2 
f 37/78/5 36/79/5 46/52/5 45/51/5 
f 34/80/4 37/81/4 45/56/4 47/55/4 
f 12/82/4 11/83/4 49/60/4 48/59/4 
f 36/84/2 35/85/2 57/71/2 46/70/2 
f 11/83/4 55/86/4 58/73/4 49/60/4 
f 41/54/4 56/74/4 58/73/4 47/55/4 
s 1
f 58/87/5 55/88/5 54/89/5 44/90/5 
f 34/91/1 47/92/1 57/93/1 35/94/1 
s 2
f 47/95/3 58/96/3 44/97/3 57/98/3 
# 46 polygons

