# 3ds Max Wavefront OBJ Exporter v0.97b - (c)2007 guruware
# File Created: 22.03.2014 20:51:56

mtllib VerticallWall_test_2_perfect_size.mtl

#
# object VerticalWall_1_2_2_7
#

v  -0.5000 1.0000 1.4000
v  0.5000 1.0000 1.4000
v  0.5000 1.0000 -1.4000
v  -0.5000 1.0000 -1.4000
v  -0.5000 -1.0000 1.4000
v  0.5000 -1.0000 1.4000
v  0.5000 -1.0000 -1.4000
v  -0.5000 -1.0000 -1.4000
# 8 vertices

vn 0.0000 1.0000 -0.0000
vn 0.0000 0.0000 1.0000
vn 1.0000 0.0000 -0.0000
vn 0.0000 0.0000 -1.0000
vn -1.0000 0.0000 -0.0000
# 5 vertex normals

vt 0.5805 0.4195 0.0000
vt 0.7817 0.4195 0.0000
vt 0.7817 0.9829 0.0000
vt 0.5805 0.9829 0.0000
vt 0.7988 0.4195 0.0000
vt 1.0000 0.4195 0.0000
vt 1.0000 0.8220 0.0000
vt 0.7988 0.8220 0.0000
vt 0.0000 0.4195 0.0000
vt 0.5634 0.4195 0.0000
vt 0.5634 0.8220 0.0000
vt 0.0000 0.8220 0.0000
vt 0.5805 0.0000 0.0000
vt 0.7817 0.0000 0.0000
vt 0.7817 0.4024 0.0000
vt 0.5805 0.4024 0.0000
vt 0.0000 0.0000 0.0000
vt 0.5634 0.0000 0.0000
vt 0.5634 0.4024 0.0000
vt 0.0000 0.4024 0.0000
# 20 texture coords

g VerticalWall_1_2_2_7
usemtl wire_140088225
s 4
f 1/1/1 2/2/1 3/3/1 4/4/1 
s 8
f 5/5/2 6/6/2 2/7/2 1/8/2 
s 16
f 6/9/3 7/10/3 3/11/3 2/12/3 
s 32
f 7/13/4 8/14/4 4/15/4 3/16/4 
s 64
f 8/17/5 5/18/5 1/19/5 4/20/5 
# 5 polygons

