# 3ds Max Wavefront OBJ Exporter v0.97b - (c)2007 guruware
# File Created: 06.04.2014 12:18:37

mtllib Egypt_Wall_Square.mtl

#
# object Egypt_Wall_Square
#

v  -0.2500 1.0000 1.0000
v  0.2500 1.0000 1.0000
v  0.2500 1.0000 -1.0000
v  -0.2500 1.0000 -1.0000
v  0.2500 -1.0000 1.0000
v  0.2500 -1.0000 -1.0000
v  -0.2500 -1.0000 -1.0000
v  -0.2500 -1.0000 1.0000
# 8 vertices

vn 0.0000 1.0000 -0.0000
vn 1.0000 0.0000 -0.0000
vn -1.0000 0.0000 -0.0000
# 3 vertex normals

vt 0.0005 0.0005 0.9995
vt 0.9995 0.0005 0.9995
vt 0.9995 0.9995 0.9995
vt 0.0005 0.9995 0.9995
vt 0.0005 0.0005 0.0005
vt 0.9995 0.0005 0.0005
vt 0.9995 0.9995 0.0005
vt 0.0005 0.9995 0.0005
# 8 texture coords

g Egypt_Wall_Square
usemtl wire_154185229
s 4
f 1/1/1 2/2/1 3/3/1 4/4/1 
s 16
f 5/1/2 6/2/2 3/3/2 2/4/2 
s 64
f 7/5/3 8/6/3 1/7/3 4/8/3 
# 3 polygons

