# 3ds Max Wavefront OBJ Exporter v0.97b - (c)2007 guruware
# File Created: 23.03.2014 17:57:38

mtllib egypt_corner_1.mtl

#
# object Egypt_corner_1
#

v  -0.3982 0.7093 -0.1918
v  -0.4589 -0.5937 -0.2210
v  -0.5094 -0.5937 -0.0000
v  -0.4420 0.7093 -0.0000
v  -0.2756 0.7093 -0.3456
v  -0.3176 -0.5937 -0.3983
v  -0.0984 0.7093 -0.4309
v  -0.1133 -0.5937 -0.4966
v  0.0984 0.7093 -0.4309
v  0.1133 -0.5937 -0.4966
v  0.2756 0.7093 -0.3456
v  0.3176 -0.5937 -0.3983
v  0.3982 0.7093 -0.1918
v  0.4589 -0.5937 -0.2210
v  0.4420 0.7093 -0.0000
v  0.5094 -0.5937 -0.0000
v  -0.4390 0.7414 -0.2114
v  -0.4872 0.7414 -0.0000
v  -0.4230 -0.7536 -0.0000
v  -0.3811 -0.7536 -0.1835
v  -0.3038 0.7414 -0.3809
v  -0.2637 -0.7536 -0.3307
v  -0.1084 0.7414 -0.4750
v  -0.0941 -0.7536 -0.4124
v  0.1084 0.7414 -0.4750
v  0.0941 -0.7536 -0.4124
v  0.3038 0.7414 -0.3809
v  0.2637 -0.7536 -0.3307
v  0.4390 0.7414 -0.2114
v  0.3811 -0.7536 -0.1835
v  0.4872 0.7414 -0.0000
v  0.4230 -0.7536 -0.0000
v  -0.4892 1.2801 -0.2356
v  -0.3966 1.2261 -0.1910
v  -0.4402 1.2261 -0.0000
v  -0.5430 1.2801 -0.0000
v  -0.3385 1.2801 -0.4245
v  -0.2744 1.2261 -0.3441
v  -0.1208 1.2801 -0.5294
v  -0.0979 1.2261 -0.4291
v  0.1208 1.2801 -0.5294
v  0.0979 1.2261 -0.4291
v  0.3385 1.2801 -0.4245
v  0.2744 1.2261 -0.3441
v  0.4892 1.2801 -0.2356
v  0.3966 1.2261 -0.1910
v  0.5430 1.2801 -0.0000
v  0.4402 1.2261 -0.0000
v  -0.4577 0.8453 -0.2204
v  -0.5080 0.8453 -0.0000
v  -0.3167 0.8453 -0.3971
v  -0.1130 0.8453 -0.4952
v  0.1130 0.8453 -0.4952
v  0.3167 0.8453 -0.3971
v  0.4577 0.8453 -0.2204
v  0.5080 0.8453 -0.0000
v  -0.4644 1.3104 -0.2236
v  -0.5154 1.3104 -0.0000
v  -0.3214 1.3104 -0.4030
v  -0.1147 1.3104 -0.5025
v  0.1147 1.3104 -0.5025
v  0.3214 1.3104 -0.4030
v  0.4644 1.3104 -0.2236
v  0.5154 1.3104 -0.0000
v  -0.4428 0.9493 -0.2133
v  -0.4915 0.9493 -0.0000
v  -0.3065 0.9493 -0.3843
v  -0.1094 0.9493 -0.4792
v  0.1094 0.9493 -0.4792
v  0.3065 0.9493 -0.3843
v  0.4428 0.9493 -0.2133
v  0.4915 0.9493 -0.0000
v  -0.3942 1.1081 -0.1899
v  -0.4376 1.1081 -0.0000
v  -0.2728 1.1081 -0.3421
v  -0.0974 1.1081 -0.4266
v  0.0974 1.1081 -0.4266
v  0.2728 1.1081 -0.3421
v  0.3942 1.1081 -0.1899
v  0.4376 1.1081 -0.0000
v  -0.0000 1.3116 -0.0000
v  -0.6282 -0.9908 -0.0000
v  -0.6313 -0.8480 -0.0000
v  -0.5688 -0.8480 -0.2739
v  -0.5660 -0.9908 -0.2726
v  -0.3936 -0.8480 -0.4936
v  -0.3917 -0.9908 -0.4912
v  -0.1405 -0.8480 -0.6155
v  -0.1398 -0.9908 -0.6125
v  0.1405 -0.8480 -0.6155
v  0.1398 -0.9908 -0.6125
v  0.3936 -0.8480 -0.4936
v  0.3917 -0.9908 -0.4912
v  0.5688 -0.8480 -0.2739
v  0.5660 -0.9908 -0.2726
v  0.6313 -0.8480 -0.0000
v  0.6282 -0.9908 -0.0000
v  0.5973 -0.8049 -0.0000
v  0.5382 -0.8049 -0.2592
v  0.3724 -0.8049 -0.4670
v  0.1329 -0.8049 -0.5824
v  -0.1329 -0.8049 -0.5824
v  -0.3724 -0.8049 -0.4670
v  -0.5382 -0.8049 -0.2592
v  -0.5973 -0.8049 -0.0000
v  -0.3982 0.7093 0.1918
v  -0.4589 -0.5937 0.2210
v  -0.2756 0.7093 0.3456
v  -0.3176 -0.5937 0.3983
v  -0.0984 0.7093 0.4309
v  -0.1133 -0.5937 0.4966
v  0.0984 0.7093 0.4309
v  0.1133 -0.5937 0.4966
v  0.2756 0.7093 0.3456
v  0.3176 -0.5937 0.3983
v  0.3982 0.7093 0.1918
v  0.4589 -0.5937 0.2210
v  -0.4390 0.7414 0.2114
v  -0.3811 -0.7536 0.1835
v  -0.3038 0.7414 0.3809
v  -0.2637 -0.7536 0.3307
v  -0.1084 0.7414 0.4750
v  -0.0941 -0.7536 0.4124
v  0.1084 0.7414 0.4750
v  0.0941 -0.7536 0.4124
v  0.3038 0.7414 0.3809
v  0.2637 -0.7536 0.3307
v  0.4390 0.7414 0.2114
v  0.3811 -0.7536 0.1835
v  -0.4892 1.2801 0.2356
v  -0.3966 1.2261 0.1910
v  -0.3385 1.2801 0.4245
v  -0.2744 1.2261 0.3441
v  -0.1208 1.2801 0.5294
v  -0.0979 1.2261 0.4291
v  0.1208 1.2801 0.5294
v  0.0979 1.2261 0.4291
v  0.3385 1.2801 0.4245
v  0.2744 1.2261 0.3441
v  0.4892 1.2801 0.2356
v  0.3966 1.2261 0.1910
v  -0.4577 0.8453 0.2204
v  -0.3167 0.8453 0.3971
v  -0.1130 0.8453 0.4952
v  0.1130 0.8453 0.4952
v  0.3167 0.8453 0.3971
v  0.4577 0.8453 0.2204
v  -0.4644 1.3104 0.2236
v  -0.3214 1.3104 0.4030
v  -0.1147 1.3104 0.5025
v  0.1147 1.3104 0.5025
v  0.3214 1.3104 0.4030
v  0.4644 1.3104 0.2236
v  -0.4428 0.9493 0.2133
v  -0.3065 0.9493 0.3843
v  -0.1094 0.9493 0.4792
v  0.1094 0.9493 0.4792
v  0.3065 0.9493 0.3843
v  0.4428 0.9493 0.2133
v  -0.3942 1.1081 0.1899
v  -0.2728 1.1081 0.3421
v  -0.0974 1.1081 0.4266
v  0.0974 1.1081 0.4266
v  0.2728 1.1081 0.3421
v  0.3942 1.1081 0.1899
v  -0.5660 -0.9908 0.2726
v  -0.5688 -0.8480 0.2739
v  -0.3917 -0.9908 0.4912
v  -0.3936 -0.8480 0.4936
v  -0.1398 -0.9908 0.6125
v  -0.1405 -0.8480 0.6155
v  0.1398 -0.9908 0.6125
v  0.1405 -0.8480 0.6155
v  0.3917 -0.9908 0.4912
v  0.3936 -0.8480 0.4936
v  0.5660 -0.9908 0.2726
v  0.5688 -0.8480 0.2739
v  0.5382 -0.8049 0.2592
v  0.3724 -0.8049 0.4670
v  0.1329 -0.8049 0.5824
v  -0.1329 -0.8049 0.5824
v  -0.3724 -0.8049 0.4670
v  -0.5382 -0.8049 0.2592
# 183 vertices

vn -0.8998 0.0517 -0.4333
vn -0.8804 -0.2123 -0.4240
vn -0.9772 -0.2123 -0.0000
vn -0.9987 0.0517 -0.0000
vn -0.6227 0.0517 -0.7808
vn -0.6093 -0.2123 -0.7640
vn -0.2222 0.0517 -0.9736
vn -0.2174 -0.2123 -0.9527
vn 0.2222 0.0517 -0.9736
vn 0.2174 -0.2123 -0.9527
vn 0.6227 0.0517 -0.7808
vn 0.6093 -0.2123 -0.7640
vn 0.8998 0.0517 -0.4333
vn 0.8804 -0.2123 -0.4240
vn 0.9987 0.0517 -0.0000
vn 0.9772 -0.2123 -0.0000
vn -0.7687 -0.5216 -0.3702
vn -0.5211 -0.8157 -0.2510
vn -0.5784 -0.8157 0.0000
vn -0.8532 -0.5216 0.0000
vn -0.8797 -0.4755 0.0000
vn -0.7926 -0.4755 -0.3817
vn -0.5320 -0.5216 -0.6671
vn -0.3606 -0.8157 -0.4522
vn -0.5485 -0.4755 -0.6878
vn -0.1899 -0.5216 -0.8318
vn -0.1287 -0.8157 -0.5639
vn -0.1958 -0.4755 -0.8577
vn 0.1899 -0.5216 -0.8318
vn 0.1287 -0.8157 -0.5639
vn 0.1958 -0.4755 -0.8577
vn 0.5320 -0.5216 -0.6671
vn 0.3606 -0.8157 -0.4522
vn 0.5485 -0.4755 -0.6878
vn 0.7687 -0.5216 -0.3702
vn 0.5211 -0.8157 -0.2510
vn 0.7926 -0.4755 -0.3817
vn 0.8532 -0.5216 -0.0000
vn 0.5784 -0.8157 -0.0000
vn 0.8797 -0.4755 -0.0000
vn -0.4192 -0.8852 -0.2019
vn -0.7456 -0.5614 -0.3591
vn -0.8275 -0.5614 0.0000
vn -0.4652 -0.8852 -0.0000
vn -0.2901 -0.8852 -0.3637
vn -0.5160 -0.5614 -0.6470
vn -0.1035 -0.8852 -0.4536
vn -0.1841 -0.5614 -0.8068
vn 0.1035 -0.8852 -0.4536
vn 0.1841 -0.5614 -0.8068
vn 0.2901 -0.8852 -0.3637
vn 0.5160 -0.5614 -0.6470
vn 0.4192 -0.8852 -0.2019
vn 0.7456 -0.5614 -0.3591
vn 0.4652 -0.8852 -0.0000
vn 0.8275 -0.5614 -0.0000
vn -0.9008 -0.0196 -0.4338
vn -0.9998 -0.0196 -0.0000
vn -0.6234 -0.0196 -0.7817
vn -0.2225 -0.0196 -0.9747
vn 0.2225 -0.0196 -0.9747
vn 0.6234 -0.0196 -0.7817
vn 0.9008 -0.0196 -0.4338
vn 0.9998 -0.0196 -0.0000
vn -0.6667 0.6726 -0.3211
vn -0.7400 0.6726 0.0000
vn -0.7400 0.6726 -0.0000
vn -0.4614 0.6726 -0.5786
vn -0.1647 0.6726 -0.7214
vn 0.1647 0.6726 -0.7214
vn 0.4614 0.6726 -0.5786
vn 0.6667 0.6726 -0.3211
vn 0.7400 0.6726 -0.0000
vn -0.8753 0.2371 -0.4215
vn -0.9715 0.2371 0.0000
vn -0.6057 0.2371 -0.7595
vn -0.2162 0.2371 -0.9471
vn 0.2162 0.2371 -0.9471
vn 0.6057 0.2371 -0.7595
vn 0.8753 0.2371 -0.4215
vn 0.9715 0.2371 -0.0000
vn -0.8899 0.1561 -0.4286
vn -0.9877 0.1561 -0.0000
vn -0.6158 0.1561 -0.7722
vn -0.2198 0.1561 -0.9630
vn 0.2198 0.1561 -0.9630
vn 0.6158 0.1561 -0.7722
vn 0.8899 0.1561 -0.4286
vn 0.9877 0.1561 0.0000
vn -0.0023 1.0000 -0.0000
vn 0.0000 1.0000 0.0000
vn -0.0021 1.0000 -0.0010
vn -0.0014 1.0000 -0.0018
vn -0.0005 1.0000 -0.0023
vn 0.0005 1.0000 -0.0023
vn 0.0014 1.0000 -0.0018
vn 0.0021 1.0000 -0.0010
vn 0.0023 1.0000 -0.0000
vn -0.9998 -0.0216 -0.0000
vn -0.9528 0.3037 -0.0000
vn -0.8584 0.3037 -0.4134
vn -0.9008 -0.0216 -0.4338
vn -0.5940 0.3037 -0.7449
vn -0.6233 -0.0216 -0.7816
vn -0.2120 0.3037 -0.9289
vn -0.2225 -0.0216 -0.9747
vn 0.2120 0.3037 -0.9289
vn 0.2225 -0.0216 -0.9747
vn 0.5940 0.3037 -0.7449
vn 0.6233 -0.0216 -0.7816
vn 0.8584 0.3037 -0.4134
vn 0.9008 -0.0216 -0.4338
vn 0.9528 0.3037 -0.0000
vn 0.9998 -0.0216 -0.0000
vn 0.2821 0.9594 -0.0000
vn 0.5887 0.8084 -0.0000
vn 0.5304 0.8084 -0.2554
vn 0.2542 0.9594 -0.1224
vn 0.3670 0.8084 -0.4602
vn 0.1759 0.9594 -0.2206
vn 0.1310 0.8084 -0.5739
vn 0.0628 0.9594 -0.2751
vn -0.1310 0.8084 -0.5739
vn -0.0628 0.9594 -0.2751
vn -0.3670 0.8084 -0.4602
vn -0.1759 0.9594 -0.2206
vn -0.5304 0.8084 -0.2554
vn -0.2542 0.9594 -0.1224
vn -0.5887 0.8084 0.0000
vn -0.2821 0.9594 -0.0000
vn -0.8998 0.0517 0.4333
vn -0.8804 -0.2123 0.4240
vn -0.6227 0.0517 0.7808
vn -0.6093 -0.2123 0.7640
vn -0.2222 0.0517 0.9736
vn -0.2174 -0.2123 0.9527
vn 0.2222 0.0517 0.9736
vn 0.2174 -0.2123 0.9527
vn 0.6227 0.0517 0.7808
vn 0.6093 -0.2123 0.7640
vn 0.8998 0.0517 0.4333
vn 0.8804 -0.2123 0.4240
vn -0.7687 -0.5216 0.3702
vn -0.5211 -0.8157 0.2510
vn -0.7926 -0.4755 0.3817
vn -0.5320 -0.5216 0.6671
vn -0.3606 -0.8157 0.4522
vn -0.5485 -0.4755 0.6878
vn -0.1899 -0.5216 0.8318
vn -0.1287 -0.8157 0.5639
vn -0.1958 -0.4755 0.8577
vn 0.1899 -0.5216 0.8318
vn 0.1287 -0.8157 0.5639
vn 0.1958 -0.4755 0.8577
vn 0.5320 -0.5216 0.6671
vn 0.3606 -0.8157 0.4522
vn 0.5485 -0.4755 0.6878
vn 0.7687 -0.5216 0.3702
vn 0.5211 -0.8157 0.2510
vn 0.7926 -0.4755 0.3817
vn -0.4192 -0.8852 0.2019
vn -0.7456 -0.5614 0.3591
vn -0.2901 -0.8852 0.3637
vn -0.5160 -0.5614 0.6470
vn -0.1035 -0.8852 0.4536
vn -0.1841 -0.5614 0.8068
vn 0.1035 -0.8852 0.4536
vn 0.1841 -0.5614 0.8068
vn 0.2901 -0.8852 0.3637
vn 0.5160 -0.5614 0.6470
vn 0.4192 -0.8852 0.2019
vn 0.7456 -0.5614 0.3591
vn -0.9008 -0.0196 0.4338
vn -0.6234 -0.0196 0.7817
vn -0.2225 -0.0196 0.9747
vn 0.2225 -0.0196 0.9747
vn 0.6234 -0.0196 0.7817
vn 0.9008 -0.0196 0.4338
vn -0.6667 0.6726 0.3211
vn -0.4614 0.6726 0.5786
vn -0.1647 0.6726 0.7214
vn 0.1647 0.6726 0.7214
vn 0.4614 0.6726 0.5786
vn 0.6667 0.6726 0.3211
vn -0.8753 0.2371 0.4215
vn -0.6057 0.2371 0.7595
vn -0.2162 0.2371 0.9471
vn 0.2162 0.2371 0.9471
vn 0.6057 0.2371 0.7595
vn 0.8753 0.2371 0.4215
vn -0.8899 0.1561 0.4286
vn -0.6158 0.1561 0.7722
vn -0.2198 0.1561 0.9630
vn 0.2198 0.1561 0.9630
vn 0.6158 0.1561 0.7722
vn 0.8899 0.1561 0.4286
vn -0.0021 1.0000 0.0010
vn -0.0014 1.0000 0.0018
vn -0.0005 1.0000 0.0023
vn 0.0005 1.0000 0.0023
vn 0.0014 1.0000 0.0018
vn 0.0021 1.0000 0.0010
vn -0.9008 -0.0216 0.4338
vn -0.8584 0.3037 0.4134
vn -0.6233 -0.0216 0.7816
vn -0.5940 0.3037 0.7449
vn -0.2225 -0.0216 0.9747
vn -0.2120 0.3037 0.9289
vn 0.2225 -0.0216 0.9747
vn 0.2120 0.3037 0.9289
vn 0.6233 -0.0216 0.7816
vn 0.5940 0.3037 0.7449
vn 0.9008 -0.0216 0.4338
vn 0.8584 0.3037 0.4134
vn 0.2542 0.9594 0.1224
vn 0.5304 0.8084 0.2554
vn 0.1759 0.9594 0.2206
vn 0.3670 0.8084 0.4602
vn 0.0628 0.9594 0.2751
vn 0.1310 0.8084 0.5739
vn -0.0628 0.9594 0.2751
vn -0.1310 0.8084 0.5739
vn -0.1759 0.9594 0.2206
vn -0.3670 0.8084 0.4602
vn -0.2542 0.9594 0.1224
vn -0.5304 0.8084 0.2554
# 226 vertex normals

vt 0.5461 0.6084 0.0000
vt 0.5431 0.0794 0.0000
vt 0.6300 0.0794 0.0000
vt 0.6341 0.6084 0.0000
vt 0.4581 0.6084 0.0000
vt 0.4563 0.0795 0.0000
vt 0.3702 0.6084 0.0000
vt 0.3694 0.0795 0.0000
vt 0.2822 0.6084 0.0000
vt 0.2825 0.0795 0.0000
vt 0.1942 0.6084 0.0000
vt 0.1957 0.0795 0.0000
vt 0.1062 0.6083 0.0000
vt 0.1088 0.0796 0.0000
vt 0.0182 0.6083 0.0000
vt 0.0219 0.0796 0.0000
vt 0.9231 0.5896 0.0000
vt 0.9455 0.5898 0.0000
vt 0.9457 0.6816 0.0000
vt 0.9236 0.6812 0.0000
vt 0.6296 0.0058 0.0000
vt 0.5430 0.0060 0.0000
vt 0.9227 0.4979 0.0000
vt 0.9452 0.4980 0.0000
vt 0.4556 0.0062 0.0000
vt 0.9222 0.4063 0.0000
vt 0.9450 0.4062 0.0000
vt 0.3691 0.0055 0.0000
vt 0.9218 0.3146 0.0000
vt 0.9448 0.3144 0.0000
vt 0.2825 0.0049 0.0000
vt 0.9213 0.2230 0.0000
vt 0.9446 0.2226 0.0000
vt 0.1960 0.0051 0.0000
vt 0.9209 0.1313 0.0000
vt 0.9443 0.1308 0.0000
vt 0.1094 0.0053 0.0000
vt 0.9204 0.0397 0.0000
vt 0.9441 0.0390 0.0000
vt 0.0229 0.0055 0.0000
vt 0.6631 0.5887 0.0000
vt 0.7242 0.5889 0.0000
vt 0.7247 0.6800 0.0000
vt 0.6634 0.6797 0.0000
vt 0.6628 0.4977 0.0000
vt 0.7237 0.4978 0.0000
vt 0.6624 0.4068 0.0000
vt 0.7232 0.4067 0.0000
vt 0.6621 0.3158 0.0000
vt 0.7227 0.3156 0.0000
vt 0.6618 0.2248 0.0000
vt 0.7222 0.2244 0.0000
vt 0.6615 0.1338 0.0000
vt 0.7217 0.1333 0.0000
vt 0.6611 0.0429 0.0000
vt 0.7212 0.0422 0.0000
vt 0.8867 0.5894 0.0000
vt 0.8880 0.6809 0.0000
vt 0.8854 0.4979 0.0000
vt 0.8841 0.4064 0.0000
vt 0.8828 0.3149 0.0000
vt 0.8815 0.2233 0.0000
vt 0.8802 0.1318 0.0000
vt 0.8789 0.0403 0.0000
vt 0.4152 0.7077 0.0000
vt 0.4293 0.7148 0.0000
vt 0.4520 0.6229 0.0000
vt 0.4361 0.6213 0.0000
vt 0.3595 0.7765 0.0000
vt 0.3693 0.7889 0.0000
vt 0.2797 0.8145 0.0000
vt 0.2832 0.8300 0.0000
vt 0.1912 0.8145 0.0000
vt 0.1878 0.8300 0.0000
vt 0.1114 0.7765 0.0000
vt 0.1016 0.7889 0.0000
vt 0.0557 0.7077 0.0000
vt 0.0416 0.7148 0.0000
vt 0.0349 0.6213 0.0000
vt 0.0189 0.6229 0.0000
vt 0.8342 0.5892 0.0000
vt 0.8339 0.6806 0.0000
vt 0.8345 0.4979 0.0000
vt 0.8348 0.4065 0.0000
vt 0.8351 0.3151 0.0000
vt 0.8354 0.2237 0.0000
vt 0.8357 0.1323 0.0000
vt 0.8360 0.0410 0.0000
vt 0.7699 0.5891 0.0000
vt 0.7704 0.6803 0.0000
vt 0.7695 0.4978 0.0000
vt 0.7690 0.4066 0.0000
vt 0.7685 0.3153 0.0000
vt 0.7681 0.2241 0.0000
vt 0.7676 0.1328 0.0000
vt 0.7671 0.0416 0.0000
vt 0.2355 0.6190 0.0000
vt 0.0288 0.8366 0.0000
vt 0.0298 0.8950 0.0000
vt 0.1383 0.8950 0.0000
vt 0.1379 0.8366 0.0000
vt 0.2468 0.8950 0.0000
vt 0.2469 0.8366 0.0000
vt 0.3553 0.8950 0.0000
vt 0.3559 0.8366 0.0000
vt 0.4637 0.8950 0.0000
vt 0.4649 0.8366 0.0000
vt 0.5722 0.8951 0.0000
vt 0.5740 0.8366 0.0000
vt 0.6807 0.8951 0.0000
vt 0.6830 0.8366 0.0000
vt 0.7892 0.8951 0.0000
vt 0.7920 0.8366 0.0000
vt 0.7791 0.9895 0.0000
vt 0.7880 0.9202 0.0000
vt 0.6796 0.9196 0.0000
vt 0.6730 0.9888 0.0000
vt 0.5712 0.9190 0.0000
vt 0.5668 0.9880 0.0000
vt 0.4628 0.9184 0.0000
vt 0.4607 0.9872 0.0000
vt 0.3544 0.9178 0.0000
vt 0.3545 0.9864 0.0000
vt 0.2460 0.9172 0.0000
vt 0.2484 0.9856 0.0000
vt 0.1376 0.9166 0.0000
vt 0.1422 0.9848 0.0000
vt 0.0292 0.9160 0.0000
vt 0.0361 0.9840 0.0000
vt 0.1062 0.6084 0.0000
vt 0.0182 0.6084 0.0000
vt 0.0223 0.0794 0.0000
vt 0.1092 0.0794 0.0000
vt 0.1960 0.0795 0.0000
vt 0.2829 0.0795 0.0000
vt 0.3698 0.0795 0.0000
vt 0.4566 0.0795 0.0000
vt 0.5461 0.6083 0.0000
vt 0.5435 0.0796 0.0000
vt 0.6341 0.6083 0.0000
vt 0.6304 0.0796 0.0000
vt 0.9231 0.1310 0.0000
vt 0.9236 0.0393 0.0000
vt 0.9457 0.0390 0.0000
vt 0.9455 0.1308 0.0000
vt 0.0228 0.0058 0.0000
vt 0.1093 0.0060 0.0000
vt 0.9227 0.2227 0.0000
vt 0.9452 0.2226 0.0000
vt 0.1967 0.0062 0.0000
vt 0.9222 0.3143 0.0000
vt 0.9450 0.3144 0.0000
vt 0.2833 0.0055 0.0000
vt 0.9218 0.4060 0.0000
vt 0.9448 0.4062 0.0000
vt 0.3698 0.0049 0.0000
vt 0.9213 0.4976 0.0000
vt 0.9446 0.4980 0.0000
vt 0.4563 0.0051 0.0000
vt 0.9209 0.5893 0.0000
vt 0.9443 0.5898 0.0000
vt 0.5429 0.0053 0.0000
vt 0.9204 0.6809 0.0000
vt 0.9441 0.6816 0.0000
vt 0.6294 0.0055 0.0000
vt 0.6631 0.1319 0.0000
vt 0.6634 0.0409 0.0000
vt 0.7247 0.0406 0.0000
vt 0.7242 0.1317 0.0000
vt 0.6628 0.2229 0.0000
vt 0.7237 0.2228 0.0000
vt 0.6624 0.3138 0.0000
vt 0.7232 0.3139 0.0000
vt 0.6621 0.4048 0.0000
vt 0.7227 0.4050 0.0000
vt 0.6618 0.4958 0.0000
vt 0.7222 0.4961 0.0000
vt 0.6615 0.5868 0.0000
vt 0.7217 0.5873 0.0000
vt 0.6611 0.6777 0.0000
vt 0.7212 0.6784 0.0000
vt 0.8867 0.1312 0.0000
vt 0.8880 0.0397 0.0000
vt 0.8854 0.2227 0.0000
vt 0.8841 0.3142 0.0000
vt 0.8828 0.4057 0.0000
vt 0.8815 0.4972 0.0000
vt 0.8802 0.5888 0.0000
vt 0.8789 0.6803 0.0000
vt 0.8342 0.1314 0.0000
vt 0.8339 0.0400 0.0000
vt 0.8345 0.2227 0.0000
vt 0.8348 0.3141 0.0000
vt 0.8351 0.4055 0.0000
vt 0.8354 0.4969 0.0000
vt 0.8357 0.5883 0.0000
vt 0.8360 0.6796 0.0000
vt 0.7699 0.1315 0.0000
vt 0.7704 0.0403 0.0000
vt 0.7695 0.2228 0.0000
vt 0.7690 0.3140 0.0000
vt 0.7685 0.4053 0.0000
vt 0.7681 0.4965 0.0000
vt 0.7676 0.5878 0.0000
vt 0.7671 0.6790 0.0000
vt 0.6826 0.8950 0.0000
vt 0.7910 0.8950 0.0000
vt 0.5741 0.8950 0.0000
vt 0.4656 0.8950 0.0000
vt 0.3571 0.8950 0.0000
vt 0.2486 0.8951 0.0000
vt 0.1401 0.8951 0.0000
vt 0.0317 0.8951 0.0000
vt 0.0417 0.9895 0.0000
vt 0.1479 0.9888 0.0000
vt 0.1413 0.9196 0.0000
vt 0.0329 0.9202 0.0000
vt 0.2540 0.9880 0.0000
vt 0.2497 0.9190 0.0000
vt 0.3602 0.9872 0.0000
vt 0.3581 0.9184 0.0000
vt 0.4663 0.9864 0.0000
vt 0.4665 0.9178 0.0000
vt 0.5725 0.9856 0.0000
vt 0.5749 0.9172 0.0000
vt 0.6786 0.9848 0.0000
vt 0.6833 0.9166 0.0000
vt 0.7848 0.9840 0.0000
vt 0.7917 0.9160 0.0000
# 229 texture coords

g Egypt_corner_1
usemtl 24___Default
s 2
f 1/1/1 2/2/2 3/3/3 4/4/4 
f 5/5/5 6/6/6 2/2/2 1/1/1 
f 7/7/7 8/8/8 6/6/6 5/5/5 
f 9/9/9 10/10/10 8/8/8 7/7/7 
f 11/11/11 12/12/12 10/10/10 9/9/9 
f 13/13/13 14/14/14 12/12/12 11/11/11 
f 15/15/15 16/16/16 14/14/14 13/13/13 
s 1
f 17/17/17 1/18/18 4/19/19 18/20/20 
s 2
f 19/21/21 3/3/3 2/2/2 20/22/22 
s 1
f 21/23/23 5/24/24 1/18/18 17/17/17 
s 2
f 20/22/22 2/2/2 6/6/6 22/25/25 
s 1
f 23/26/26 7/27/27 5/24/24 21/23/23 
s 2
f 22/25/25 6/6/6 8/8/8 24/28/28 
s 1
f 25/29/29 9/30/30 7/27/27 23/26/26 
s 2
f 24/28/28 8/8/8 10/10/10 26/31/31 
s 1
f 27/32/32 11/33/33 9/30/30 25/29/29 
s 2
f 26/31/31 10/10/10 12/12/12 28/34/34 
s 1
f 29/35/35 13/36/36 11/33/33 27/32/32 
s 2
f 28/34/34 12/12/12 14/14/14 30/37/37 
s 1
f 31/38/38 15/39/39 13/36/36 29/35/35 
s 2
f 30/37/37 14/14/14 16/16/16 32/40/40 
s 1
f 33/41/41 34/42/42 35/43/43 36/44/44 
f 37/45/45 38/46/46 34/42/42 33/41/41 
f 39/47/47 40/48/48 38/46/46 37/45/45 
f 41/49/49 42/50/50 40/48/48 39/47/47 
f 43/51/51 44/52/52 42/50/50 41/49/49 
f 45/53/53 46/54/54 44/52/52 43/51/51 
f 47/55/55 48/56/56 46/54/54 45/53/53 
f 49/57/57 17/17/17 18/20/20 50/58/58 
f 51/59/59 21/23/23 17/17/17 49/57/57 
f 52/60/60 23/26/26 21/23/23 51/59/59 
f 53/61/61 25/29/29 23/26/26 52/60/60 
f 54/62/62 27/32/32 25/29/29 53/61/61 
f 55/63/63 29/35/35 27/32/32 54/62/62 
f 56/64/64 31/38/38 29/35/35 55/63/63 
s 2
f 57/65/65 33/66/65 36/67/66 58/68/67 
f 59/69/68 37/70/68 33/66/65 57/65/65 
f 60/71/69 39/72/69 37/70/68 59/69/68 
f 61/73/70 41/74/70 39/72/69 60/71/69 
f 62/75/71 43/76/71 41/74/70 61/73/70 
f 63/77/72 45/78/72 43/76/71 62/75/71 
f 64/79/73 47/80/73 45/78/72 63/77/72 
s 1
f 65/81/74 49/57/57 50/58/58 66/82/75 
f 67/83/76 51/59/59 49/57/57 65/81/74 
f 68/84/77 52/60/60 51/59/59 67/83/76 
f 69/85/78 53/61/61 52/60/60 68/84/77 
f 70/86/79 54/62/62 53/61/61 69/85/78 
f 71/87/80 55/63/63 54/62/62 70/86/79 
f 72/88/81 56/64/64 55/63/63 71/87/80 
f 73/89/82 65/81/74 66/82/75 74/90/83 
f 75/91/84 67/83/76 65/81/74 73/89/82 
f 76/92/85 68/84/77 67/83/76 75/91/84 
f 77/93/86 69/85/78 68/84/77 76/92/85 
f 78/94/87 70/86/79 69/85/78 77/93/86 
f 79/95/88 71/87/80 70/86/79 78/94/87 
f 80/96/89 72/88/81 71/87/80 79/95/88 
f 34/42/42 73/89/82 74/90/83 35/43/43 
f 38/46/46 75/91/84 73/89/82 34/42/42 
f 40/48/48 76/92/85 75/91/84 38/46/46 
f 42/50/50 77/93/86 76/92/85 40/48/48 
f 44/52/52 78/94/87 77/93/86 42/50/50 
f 46/54/54 79/95/88 78/94/87 44/52/52 
f 48/56/56 80/96/89 79/95/88 46/54/54 
f 58/68/90 81/97/91 57/65/92 
f 57/65/92 81/97/91 59/69/93 
f 59/69/93 81/97/91 60/71/94 
f 60/71/94 81/97/91 61/73/95 
f 61/73/95 81/97/91 62/75/96 
f 62/75/96 81/97/91 63/77/97 
f 63/77/97 81/97/91 64/79/98 
f 82/98/99 83/99/100 84/100/101 85/101/102 
f 85/101/102 84/100/101 86/102/103 87/103/104 
f 87/103/104 86/102/103 88/104/105 89/105/106 
f 89/105/106 88/104/105 90/106/107 91/107/108 
f 91/107/108 90/106/107 92/108/109 93/109/110 
f 93/109/110 92/108/109 94/110/111 95/111/112 
f 95/111/112 94/110/111 96/112/113 97/113/114 
f 32/114/115 98/115/116 99/116/117 30/117/118 
f 30/117/118 99/116/117 100/118/119 28/119/120 
f 28/119/120 100/118/119 101/120/121 26/121/122 
f 26/121/122 101/120/121 102/122/123 24/123/124 
f 24/123/124 102/122/123 103/124/125 22/125/126 
f 22/125/126 103/124/125 104/126/127 20/127/128 
f 20/127/128 104/126/127 105/128/129 19/129/130 
f 96/112/113 94/110/111 99/116/117 98/115/116 
f 94/110/111 92/108/109 100/118/119 99/116/117 
f 92/108/109 90/106/107 101/120/121 100/118/119 
f 90/106/107 88/104/105 102/122/123 101/120/121 
f 88/104/105 86/102/103 103/124/125 102/122/123 
f 86/102/103 84/100/101 104/126/127 103/124/125 
f 84/100/101 83/99/100 105/128/129 104/126/127 
s 2
f 106/130/131 4/131/4 3/132/3 107/133/132 
f 108/11/133 106/130/131 107/133/132 109/134/134 
f 110/9/135 108/11/133 109/134/134 111/135/136 
f 112/7/137 110/9/135 111/135/136 113/136/138 
f 114/5/139 112/7/137 113/136/138 115/137/140 
f 116/138/141 114/5/139 115/137/140 117/139/142 
f 15/140/15 116/138/141 117/139/142 16/141/16 
s 1
f 118/142/143 18/143/20 4/144/19 106/145/144 
s 2
f 19/146/21 119/147/145 107/133/132 3/132/3 
s 1
f 120/148/146 118/142/143 106/145/144 108/149/147 
s 2
f 119/147/145 121/150/148 109/134/134 107/133/132 
s 1
f 122/151/149 120/148/146 108/149/147 110/152/150 
s 2
f 121/150/148 123/153/151 111/135/136 109/134/134 
s 1
f 124/154/152 122/151/149 110/152/150 112/155/153 
s 2
f 123/153/151 125/156/154 113/136/138 111/135/136 
s 1
f 126/157/155 124/154/152 112/155/153 114/158/156 
s 2
f 125/156/154 127/159/157 115/137/140 113/136/138 
s 1
f 128/160/158 126/157/155 114/158/156 116/161/159 
s 2
f 127/159/157 129/162/160 117/139/142 115/137/140 
s 1
f 31/163/38 128/160/158 116/161/159 15/164/39 
s 2
f 129/162/160 32/165/40 16/141/16 117/139/142 
s 1
f 130/166/161 36/167/44 35/168/43 131/169/162 
f 132/170/163 130/166/161 131/169/162 133/171/164 
f 134/172/165 132/170/163 133/171/164 135/173/166 
f 136/174/167 134/172/165 135/173/166 137/175/168 
f 138/176/169 136/174/167 137/175/168 139/177/170 
f 140/178/171 138/176/169 139/177/170 141/179/172 
f 47/180/55 140/178/171 141/179/172 48/181/56 
f 142/182/173 50/183/58 18/143/20 118/142/143 
f 143/184/174 142/182/173 118/142/143 120/148/146 
f 144/185/175 143/184/174 120/148/146 122/151/149 
f 145/186/176 144/185/175 122/151/149 124/154/152 
f 146/187/177 145/186/176 124/154/152 126/157/155 
f 147/188/178 146/187/177 126/157/155 128/160/158 
f 56/189/64 147/188/178 128/160/158 31/163/38 
s 2
f 148/77/179 58/79/67 36/80/66 130/78/179 
f 149/75/180 148/77/179 130/78/179 132/76/180 
f 150/73/181 149/75/180 132/76/180 134/74/181 
f 151/71/182 150/73/181 134/74/181 136/72/182 
f 152/69/183 151/71/182 136/72/182 138/70/183 
f 153/65/184 152/69/183 138/70/183 140/66/184 
f 64/68/73 153/65/184 140/66/184 47/67/73 
s 1
f 154/190/185 66/191/75 50/183/58 142/182/173 
f 155/192/186 154/190/185 142/182/173 143/184/174 
f 156/193/187 155/192/186 143/184/174 144/185/175 
f 157/194/188 156/193/187 144/185/175 145/186/176 
f 158/195/189 157/194/188 145/186/176 146/187/177 
f 159/196/190 158/195/189 146/187/177 147/188/178 
f 72/197/81 159/196/190 147/188/178 56/189/64 
f 160/198/191 74/199/83 66/191/75 154/190/185 
f 161/200/192 160/198/191 154/190/185 155/192/186 
f 162/201/193 161/200/192 155/192/186 156/193/187 
f 163/202/194 162/201/193 156/193/187 157/194/188 
f 164/203/195 163/202/194 157/194/188 158/195/189 
f 165/204/196 164/203/195 158/195/189 159/196/190 
f 80/205/89 165/204/196 159/196/190 72/197/81 
f 131/169/162 35/168/43 74/199/83 160/198/191 
f 133/171/164 131/169/162 160/198/191 161/200/192 
f 135/173/166 133/171/164 161/200/192 162/201/193 
f 137/175/168 135/173/166 162/201/193 163/202/194 
f 139/177/170 137/175/168 163/202/194 164/203/195 
f 141/179/172 139/177/170 164/203/195 165/204/196 
f 48/181/56 141/179/172 165/204/196 80/205/89 
f 58/79/90 148/77/197 81/97/91 
f 148/77/197 149/75/198 81/97/91 
f 149/75/198 150/73/199 81/97/91 
f 150/73/199 151/71/200 81/97/91 
f 151/71/200 152/69/201 81/97/91 
f 152/69/201 153/65/202 81/97/91 
f 153/65/202 64/68/98 81/97/91 
f 82/113/99 166/111/203 167/206/204 83/207/100 
f 166/111/203 168/109/205 169/208/206 167/206/204 
f 168/109/205 170/107/207 171/209/208 169/208/206 
f 170/107/207 172/105/209 173/210/210 171/209/208 
f 172/105/209 174/103/211 175/211/212 173/210/210 
f 174/103/211 176/101/213 177/212/214 175/211/212 
f 176/101/213 97/98/114 96/213/113 177/212/214 
f 32/214/115 129/215/215 178/216/216 98/217/116 
f 129/215/215 127/218/217 179/219/218 178/216/216 
f 127/218/217 125/220/219 180/221/220 179/219/218 
f 125/220/219 123/222/221 181/223/222 180/221/220 
f 123/222/221 121/224/223 182/225/224 181/223/222 
f 121/224/223 119/226/225 183/227/226 182/225/224 
f 119/226/225 19/228/130 105/229/129 183/227/226 
f 96/213/113 98/217/116 178/216/216 177/212/214 
f 177/212/214 178/216/216 179/219/218 175/211/212 
f 175/211/212 179/219/218 180/221/220 173/210/210 
f 173/210/210 180/221/220 181/223/222 171/209/208 
f 171/209/208 181/223/222 182/225/224 169/208/206 
f 169/208/206 182/225/224 183/227/226 167/206/204 
f 167/206/204 183/227/226 105/229/129 83/207/100 
# 168 polygons - 14 triangles

